<svg id="Layer_1" data-name="Layer 1" xmlns="http://www.w3.org/2000/svg" viewBox="0 0 737.7 95.79"><defs><style>.cls-1{fill:#fefefe;}.cls-2{fill:#0f119c;}.cls-3{fill:#10129e;}</style></defs><path class="cls-1" d="M91.24,351.73c-5.79.08-11.86,1-14.64-6.31-.69-1.83-2.94-2.52-5.1-2.51-6.16,0-12.31,0-18.47,0a5.65,5.65,0,0,0-5,2.65c-4.88,6.81-13.29,8.53-20.83,4.35,3.33-.58,6.47,1,9.84.75,3.69-.31,6.89-1.27,9-4.45,2.37-3.55,5.67-4.82,9.84-4.62a96.41,96.41,0,0,0,10.48,0c5.67-.33,10.42.69,13.64,6.14,1.7,2.88,10.3,4,13.5,2.47,1.84-.87,1.65-2.28,1.22-3.79a46.36,46.36,0,0,0-3.19-7.84c-8.14-16.55-15.64-33.4-23.41-50.13-1.13-2.44-2.06-5.21-5.26-5.32s-5,2.46-6.22,5c-4.77,10.24-9.47,20.52-14.25,30.75-4.08,8.73-8,17.55-12.32,26.15-.61,1.22-.8,3.06-2.89,2.87q13.48-28.71,27-57.39c1.77-3.74,2.44-8.8,8.08-8.93,5.81-.13,6.35,5.09,8.09,8.78,8.12,17.22,16.09,34.52,24.12,51.78.42.9.9,1.78,1.26,2.7C98,350.44,97.18,351.65,91.24,351.73Z" transform="translate(-27.2 -258.1)"/><path class="cls-1" d="M231.27,318.73c-.56,16.95-10.59,29.45-26.46,33-18.87,4.18-34.9-3.33-43.37-20.72-3,4.38-5.51,8.85-9.13,12.46-5.5,5.46-11.79,9.1-19.7,9.48-.71,0-1.28.19-1.45,1-.06-2.28,1.87-2.06,3.17-2.27,9.78-1.53,16.49-7.41,21.91-15.17.38-.55.73-1.11,1.11-1.66,3.67-5.29,4.37-5.27,7.67.2,13.13,21.71,47,22.27,60.14,1,7.93-12.84,6.74-37.83-8.44-47.08-18.08-11-40-7.69-51.12,8.5-4.25,6.2-4.25,6.2-8.51-.41-7.37-11.43-21.1-16.94-35.34-14.19-14.45,2.78-24.6,12.32-26.82,26-3.5,21.53,5.78,36.91,26.22,42,1.86.47,4.53.1,5,3-1.72-1.9-4.2-1.43-6.34-1.95-15.77-3.89-25.86-15.86-27.08-32.28s6.77-29.94,20.82-35.68c15.53-6.34,32.38-3,41.92,8.63,2.28,2.77,4,6,6,9,9.88-17.22,26-24.24,43.89-19.14S231.9,299.55,231.27,318.73Z" transform="translate(-27.2 -258.1)"/><path class="cls-1" d="M301.31,345.68c.07,4.53-1.82,6.12-6.28,6.12-12.1,0-12.1.14-12.1-11.75,0-4.82,0-9.63,0-14.45,0-.94.23-2.13-1.07-2.45-.93-.23-1.43.56-2,1.17-2.76,2.88-5.59,5.69-8.33,8.59-2.93,3.09-5.72,3.58-8.79.07-2.52-2.87-5.3-5.51-8-8.23-.76-.77-1.28-2.19-2.75-1.43-1.12.57-.69,1.74-.7,2.68,0,6.32,0,12.63,0,18.94,0,5.52-1.13,6.6-6.73,6.79-11.58.41-11.59.4-11.59-11.26q0-26.16,0-52.32c0-2.12-.46-4.54,2-5.71s4.55.35,6.25,1.93a280.85,280.85,0,0,1,21.47,22.85c3.07,3.58,5.25,3.58,8.33.13,6.08-6.81,12.43-13.38,18.69-20a32.65,32.65,0,0,1,3.27-3.07c1.68-1.35,3.44-2.86,5.82-1.88s2.34,3.32,2.33,5.52c0,9.63,0,19.26,0,28.9h.16C301.25,326.42,301.14,336.05,301.31,345.68Z" transform="translate(-27.2 -258.1)"/><path class="cls-1" d="M362.09,306c-.63-15.37-11-22.43-23.87-23.79-8.56-.9-17.3-.18-26-.17-3.66,0-5.44,1.67-5.39,5.51.12,9.81,0,19.61,0,29.42h-.35v28.94c-.06,2.71.58,5.56,3.64,5.57,4.63,0,9.68,2,13.8-1.65.67-.59.51-2.2.57-3.35.13-2.65.22-5.31.22-8,0-3.36,1.59-4.77,5-4.63a51.69,51.69,0,0,0,11.44-.75C354.94,330.64,362.69,320.43,362.09,306ZM331.15,317.8c-5.74.05-6.59-1.29-6.59-10.43,0-8.57.55-9.19,8.23-9.19s11.26,2.86,11.28,9.22C344.1,314.87,340.55,317.73,331.15,317.8Z" transform="translate(-27.2 -258.1)"/><path class="cls-1" d="M470.09,270.52c-4.66,4.75-10.16,5.13-16,2.7-2.68-1.11-5-1.66-8-.26-4,1.84-7-1.6-9.36-4-2-2,.38-4.61,2.07-6.38A64.55,64.55,0,0,1,444,258.1c.19,2.45-2.17,3.08-3.32,4.57-1.29,1.67-3.63,3.16-2.39,5.52s3.93,4.24,6.61,3.52c4.37-1.18,8.17,0,12.19,1.16A11.59,11.59,0,0,0,467.54,271c1.89-1.41,4.81-3.06,3.23-5.93-1.45-2.64-4.35-4.7-7.52-3.63-4.12,1.39-7.51-.06-11.05-1.46-.78-.31-1.5-.78-1.17-1.84,4.12,1.4,7.59,4.46,12.83,1.53,2.6-1.45,6.59,1.91,8.63,4.54C474.35,266.56,471.82,268.76,470.09,270.52Z" transform="translate(-27.2 -258.1)"/><path class="cls-1" d="M709.85,337.9a2.42,2.42,0,0,1-.53.29c-5.88-1.24-11.73-2.1-17.77-1a9.05,9.05,0,0,1-7.55-1.88c-2.43-2-2.72-4.85-2.13-7.75s2.66-4.51,5.58-4.88c3.81-.49,7.64-.1,11.46-.29,5.16-.27,6.33-1.42,6.49-6.15.19-5.46-1-7-6.19-7.61a46.35,46.35,0,0,0-9,.07c-5.25.43-8.06-1.44-8.39-5.45-.31-3.85,2.38-6.28,7.6-6.65,3.65-.27,7.31,0,11-.13,5.81-.14,7-1.28,7-6.52,0-5.07-1.33-6.34-7.19-6.42-8.81-.12-17.67-.62-26.42.12-9.51.82-18.9-.58-28.36-.22-7.47.28-15,.14-22.44,0-3.44-.05-6.61.41-9.29,2.72l-.6-.48-.05,0c-3.43-2.54-7.45-2.39-11.51-2.27-3.5.1-5.17,1.77-5.19,5.25-.05,6,0,12,0,18a25,25,0,0,1-.25,5c-.66,3.12-2.47,3.77-5.09,2.12a30.56,30.56,0,0,1-5.27-4.57c-6.5-6.45-13-12.93-19.45-19.39-1.06-1.06-2.08-2.16-3.22-3.13-1.79-1.54-3.72-3.26-6.21-2.35-2.71,1-2.44,3.73-2.45,6-.09,15.13,0,30.26-.07,45.39,0,2.41.83,6.17-1.48,6.79,1-1.51.6-3,.6-4.39,0-16.29,0-32.59,0-48.88,0-2.43-.67-5.38,2.11-6.67,3-1.39,5.56.44,7.59,2.38,8.17,7.83,16.17,15.82,24.29,23.7,2,1.91,4.26,5.74,6.18,4.91,2.73-1.17,1.13-5.29,1.24-8.11.25-6,.17-12,0-18-.08-3.84,1.69-5.48,5.41-5.42,2.83,0,5.66,0,8.49,0,2.33.06,4.36.61,4.23,3.61,1.2-3,3.32-3.81,6.59-3.74,10.63.23,21.3-.38,31.92.09,16.72.75,33.41-.62,50.11,0,2.63.1,6-.31,6.73,2.9.89,3.79,1.48,7.92-.59,11.63-1,1.83-3.15,1.59-5,1.6-5,0-10,0-15,0-3.17,0-5.11,1.28-4.94,4.75s1.92,5,5.49,4.79c4.31-.22,8.64-.11,13-.16,4-.05,5.62,2.16,5.53,5.94v.5c.23,9.31.08,9.48-9.17,9.48h-9c-3.73,0-5.74,1.39-5.81,5.62s1.43,6.54,5.86,6.67c5.31.15,10.6-.84,15.93,0A8.33,8.33,0,0,1,709.85,337.9Z" transform="translate(-27.2 -258.1)"/><path class="cls-1" d="M664.44,297.2c-3.16,1.35-6.14.91-9.1.83-5.69-.15-7.05,1-7.17,6.91-.19,10,0,19.94-.06,29.91,0,4-.05,8,0,12,0,2.79-1.22,4.51-4,4.68a58.49,58.49,0,0,1-9.45.08c-4.17-.4-4.6-3.59-4.56-7q.23-19.17.32-38.36c0-7.64-.38-8-8.19-8.21-2.74-.08-6.64-1.53-8-.24a3.35,3.35,0,0,0-.42.51c-.21,2.25-.34,4.5-.42,6.75a16,16,0,0,1,.09,1.8c-.14,5.53-.08,11.06,0,16.6.07,3.5.11,7,0,10.5v.4c0,2.05,0,4.11-.1,6.16a33.31,33.31,0,0,1-.41,8.63c-2.25,4.57-5.44,3-8,.73-5.21-4.64-10.06-9.67-15.08-14.53q-7-6.76-14-13.51c-.81-.77-1.54-2.12-2.83-1.62s-1.12,1.93-1.13,3.08c-.08,6.81-.1,13.63-.18,20.44-.09,6.63-1.43,8-7.84,8q-10.47,0-20.94,0c-3.74,0-6.8-1-8.37-4.93-1.07-2.69-3.29-4-6.33-3.91-5.83.09-11.66,0-17.48,0-2.34,0-4.66.51-5.61,2.56-3.85,8.31-11.18,6.07-17.76,6.12-1.09,0-2.18-1.1-3.34-.57-4.44,2-7.26-.63-10-3.36-8.53-8.41-17-16.86-25.56-25.26-1-1-2-2.92-3.5-2.43-2,.65-1.1,2.86-1.13,4.38-.1,6.64,0,13.29-.06,19.94s-.89,7.64-7.43,7.47c-7.15-.19-14.29-.48-21.44,0-3.8.27-6.89-1-8.46-4.76-1.35-3.24-3.9-4.16-7.22-4.07-5,.14-10,.21-15,0-3.88-.18-6.57,1-8.62,4.48-2.37,4.08-13.76,6.28-17.7,3.74-2.59-1.66-1.21-3.83-.37-5.69,3.46-7.7,7.06-15.34,10.59-23q7.77-16.94,15.5-33.88a22.91,22.91,0,0,1,1.06-2.24c3.81-6.51,9.05-6.53,12.89,0,3.36,5.7,5.66,11.9,8.34,17.92,5.91,13.23,12,26.38,19,39.36V316.92c0-9.14-.06-18.29,0-27.43,0-2.88-.79-6.42,2.85-7.79,3.44-1.28,5.55,1.55,7.62,3.54,9,8.65,17.81,17.45,26.76,26.15,1,1,1.83,2.95,3.44,2.38,1.9-.66.7-2.65.72-4,.1-7,0-14,.08-20.95.1-5.66,1.23-6.74,6.76-6.76,13.07-.05,11.85-1,11.89,11.72,0,16.43-.29,32.87.51,49.4,1.92-.21,1.83-1.82,2.31-2.84q12.45-26.56,24.76-53.19c1.39-3,2.78-5.65,6.68-5.63s5.22,2.81,6.6,5.79c8.5,18.38,16.76,36.88,26.34,55.24-2.63.28-3.23-3.44-4.31-5.54-7.85-15.23-14.78-30.9-22-46.44-1.43-3.09-2.32-7.24-6.58-7.3s-5.2,4.08-6.72,7.15c-7.94,16.11-15,32.62-22.82,48.79-.36.75-.62,1.56-1,2.28-.56,1-1,2.4-2.32,2.31-1.75-.12-1.82-1.84-1.82-3.07,0-5.17-1.27-10.22-1.21-15.4.13-11.8.08-23.61,0-35.42,0-5.69-.74-6.36-6.27-6.5-8.37-.21-9.87,1.21-10,9.68-.06,5.15,0,10.31,0,15.46,0,2.05.93,4.68-1.77,5.67-2.47.91-4-1.24-5.45-2.71-7.72-7.58-15.33-15.26-23-22.89a26.76,26.76,0,0,0-4.48-4c-3.63-2.28-5.61-1.39-6.18,2.77a37.72,37.72,0,0,0-.12,5c0,15.13.05,30.26-.06,45.39,0,2.14.94,5.42-1.95,5.93-2.41.42-2.92-2.77-3.79-4.64-6.83-14.79-14.13-29.37-20.08-44.56a35,35,0,0,0-5-8.6c-2.82-3.62-5.64-3.57-8.62-.06a21,21,0,0,0-2.67,4.78c-8.27,17.61-16,35.47-24.45,53-2.59,5.37-1.6,6.64,4.42,6.91,4.66.21,8.51-.95,11.24-5,1.91-2.84,4.72-4,8.15-4,5,0,10,0,15,0,3.95,0,7.17,1.24,9.25,4.79,1.79,3.05,4.58,4.16,8,4.16,6.83,0,13.66.12,20.49,0,4.95-.11,6.21-1.38,6.33-6.3.17-6.48,0-13,.1-19.45,0-1.95-.2-4.27,2.1-5.18s3.81.7,5.24,2.09q11.81,11.49,23.33,23.27c3.28,3.35,6.52,5.93,11.72,5.06,2.72-.45,5.59.57,8.44.59,3.76,0,6.88-1.09,9.13-4.19,2.57-3.54,6.08-4.93,10.39-4.83,4.66.1,9.32,0,14,0,3.57,0,6.53,1.24,8.43,4.4,2,3.39,5.15,4.51,8.88,4.53,6.33,0,12.66.13,19,0,5.43-.14,7.07-1.82,7.22-7.33.16-5.82,0-11.64.09-17.46,0-2.3-.19-5,2.51-6,2.48-.94,4,1.12,5.51,2.6,7.49,7.33,14.86,14.79,22.29,22.19a26.9,26.9,0,0,0,5.32,4.5c2.37,1.37,4.44,1.39,5.72-1.5.8-1.92.53-3.94.54-5.92,0-13.12-.06-26.24.05-39.35a11.64,11.64,0,0,1,.45-4,2.29,2.29,0,0,1,.89-1.12c.86-.55,2.23-.67,4.44-.71,12-.21,13.11.85,13.12,12.78,0,11-.08,21.91,0,32.87.07,7,5.18,10.3,11.83,7.75a4.12,4.12,0,0,0,2.87-3.69c.17-1.66.16-3.32.17-5,0-10.29,0-20.59,0-30.88.05-12.29,2-14,14.29-13.92A7.22,7.22,0,0,1,664.44,297.2Z" transform="translate(-27.2 -258.1)"/><path class="cls-1" d="M709.94,338.16c0,1.93,0,3.87,0,5.8,0,7.18-.56,7.76-7.55,7.77q-14.73,0-29.46,0c-7,0-8-1-8-8.15,0-15.24,0-30.48,0-46,1,.89,1.51,2.32,1.5,4.38,0,1.66,0,3.32,0,5,0,11.63,0,23.25,0,34.87,0,7.34,1.14,8.46,8.34,8.53q12.46.12,24.94,0c7.6-.05,8.06-.53,8.65-8.12a10.59,10.59,0,0,1,.51-2.92A4.16,4.16,0,0,1,709.94,338.16Z" transform="translate(-27.2 -258.1)"/><path class="cls-1" d="M764.9,335.93c-4.69,11.62-14.4,16.07-25.85,16.64-12.07.62-22.83-2.76-29-14.46,1.28-.84,2,1.05,2.77,2,4.77,6.31,11.11,9.61,18.86,10.94,12.6,2.16,24.26-2.79,31-13.61C763.18,336.63,763.61,335.64,764.9,335.93Z" transform="translate(-27.2 -258.1)"/><path class="cls-1" d="M764.9,325c-1.27.27-1.83-.64-2.27-1.5-3.61-7.16-10.18-9.61-17.42-11.07-3.92-.78-8-.76-11.84-1.75-5.16-1.32-7.79-4.43-7.16-8.11.66-3.85,4.65-6.76,9.34-6.71a16.52,16.52,0,0,1,10.14,3.68c3.06,2.39,6.65,2.95,10.35,3,3.47.07,4.75-1.89,4.32-5.16a12.35,12.35,0,0,0-2.92-6.24c-8.37-10.16-28.61-11.83-38.79-3.34-6.78,5.65-8.74,12.92-6.83,21.07s8.42,12,16.27,13.51a63,63,0,0,0,9.89,1.29,13,13,0,0,1,4.88,1c2.95,1.28,5.28,3.19,4.92,6.7s-3,5.11-6.16,5.6c-5,.79-10,.81-14.12-3-3.91-3.55-8.68-2.78-13.31-2.37a3.42,3.42,0,0,0-3.24,3.25c-.15,1.06-.09,2.24-1,3-.92-7-.16-7.69,7-8.05,4.66-.23,8.58.6,12.29,4,4,3.65,9.15,3.37,14.1,1.51,2.18-.81,3.7-2.29,3.63-4.81-.06-2.32-1.66-3.62-3.59-4.32a31.38,31.38,0,0,0-5.79-1.32c-3.93-.6-8-.72-11.82-1.65-9-2.17-15-8.31-15.88-15.84-1.22-10.37,3-19,11.91-23.11a33,33,0,0,1,28.48-.21,22.91,22.91,0,0,1,7.9,6c3.63,4.13,5.35,10.79,3.35,12.7s-13.57.77-16-1.51c-4-3.67-8.41-5.25-13.7-3.41-2.53.88-4.44,2.53-4.66,5.3s1.81,4.55,4.18,5.59a22.62,22.62,0,0,0,5.26,1.43c2.29.38,4.63.5,6.94.78C753,312,761.13,315.18,764.9,325Z" transform="translate(-27.2 -258.1)"/><path class="cls-2" d="M205.37,282.51c-17.91-5.1-34,1.92-43.89,19.14-2-3-3.72-6.27-6-9-9.54-11.59-26.39-15-41.92-8.63-14,5.74-22,19.41-20.82,35.68s11.31,28.39,27.08,32.28c2.14.52,4.62.05,6.34,1.95h5c.17-.79.74-.95,1.45-1,7.91-.38,14.2-4,19.7-9.48,3.62-3.61,6.1-8.08,9.13-12.46,8.47,17.39,24.5,24.9,43.37,20.72,15.87-3.51,25.9-16,26.46-33C231.9,299.55,223.39,287.64,205.37,282.51ZM178,316.34c0-10.59,6.75-17.46,17.27-17.49S213,306,213,316.66c0,11.28-6.75,18.25-17.68,18.27C184.6,335,178,327.87,178,316.34Zm-54.73,18.85c-7.86-3.05-12.33-10.13-11.91-18.85.66-13.73,11-22,22.92-18.39a9.66,9.66,0,0,1,5.42,3.33c4.06,5.73,9.84,7.17,16.28,6.31,3.62-.48,4.37.61,3.75,3.91a38.34,38.34,0,0,0-.38,6.95c0,6.71,0,6.71-7.5,6.66-3.33-.54-6.42.42-9,3.77C137,336.38,130.93,338.17,123.25,335.19Z" transform="translate(-27.2 -258.1)"/><path class="cls-2" d="M764.9,325v11c-4.69,11.62-14.4,16.07-25.85,16.64-12.07.62-22.83-2.76-29-14.46l0-.09,0,0,.08.1c0-.1,0-.19,0-.28-.92-7-.16-7.69,7-8.05,4.66-.23,8.58.6,12.29,4,4,3.65,9.15,3.37,14.1,1.51,2.18-.81,3.7-2.29,3.63-4.81-.06-2.32-1.66-3.62-3.59-4.32a31.38,31.38,0,0,0-5.79-1.32c-3.93-.6-8-.72-11.82-1.65-9-2.17-15-8.31-15.88-15.84-1.22-10.37,3-19,11.91-23.11a33,33,0,0,1,28.48-.21,22.91,22.91,0,0,1,7.9,6c3.63,4.13,5.35,10.79,3.35,12.7s-13.57.77-16-1.51c-4-3.67-8.41-5.25-13.7-3.41-2.53.88-4.44,2.53-4.66,5.3s1.81,4.55,4.18,5.59a22.62,22.62,0,0,0,5.26,1.43c2.29.38,4.63.5,6.94.78C753,312,761.13,315.18,764.9,325Z" transform="translate(-27.2 -258.1)"/><path class="cls-2" d="M95.76,344.85c-.36-.92-.84-1.8-1.26-2.7-8-17.26-16-34.56-24.12-51.78-1.74-3.69-2.28-8.91-8.09-8.78-5.64.13-6.31,5.19-8.08,8.93q-13.59,28.67-27,57.39v2c7.54,4.18,16,2.46,20.83-4.35a5.65,5.65,0,0,1,5-2.65c6.16.05,12.31,0,18.47,0,2.16,0,4.41.68,5.1,2.51,2.78,7.31,8.85,6.39,14.64,6.31C97.18,351.65,98,350.44,95.76,344.85ZM57.27,323.94c.74-3.61,1-8.29,5.33-10.32.67-.32,5.46,9,5.29,10.63-.35,3.12-2.86,2.48-5.11,2.7C61.16,325.55,56.37,328.33,57.27,323.94Z" transform="translate(-27.2 -258.1)"/><path class="cls-3" d="M470.09,270.52c-4.66,4.75-10.16,5.13-16,2.7-2.68-1.11-5-1.66-8-.26-4,1.84-7-1.6-9.36-4-2-2,.38-4.61,2.07-6.38A64.55,64.55,0,0,1,444,258.1h7c4.12,1.4,7.59,4.46,12.83,1.53,2.6-1.45,6.59,1.91,8.63,4.54C474.35,266.56,471.82,268.76,470.09,270.52Z" transform="translate(-27.2 -258.1)"/><path class="cls-2" d="M613.11,285.73l-.05-.06c.13-3-1.9-3.55-4.23-3.61-2.83-.06-5.66,0-8.49,0-3.72-.06-5.49,1.58-5.41,5.42.13,6,.21,12,0,18-.11,2.82,1.49,6.94-1.24,8.11-1.92.83-4.21-3-6.18-4.91-8.12-7.88-16.12-15.87-24.29-23.7-2-1.94-4.61-3.77-7.59-2.38-2.78,1.29-2.1,4.24-2.11,6.67,0,16.29,0,32.59,0,48.88,0,1.36.45,2.88-.6,4.39-.09.13-.19.25-.3.38l-.15-.3c-9.58-18.36-17.84-36.86-26.34-55.24-1.38-3-2.66-5.76-6.6-5.79s-5.29,2.6-6.68,5.63Q500.5,313.79,488,340.34c-.48,1-.39,2.63-2.31,2.84-.8-16.53-.47-33-.51-49.4,0-12.74,1.18-11.77-11.89-11.72-5.53,0-6.66,1.1-6.76,6.76-.13,7,0,14-.08,20.95,0,1.35,1.18,3.34-.72,4-1.61.57-2.44-1.4-3.44-2.38-8.95-8.7-17.78-17.5-26.76-26.15-2.07-2-4.18-4.82-7.62-3.54-3.64,1.37-2.82,4.91-2.85,7.79-.09,9.14,0,18.29,0,27.43v26.57c-7.05-13-13.13-26.13-19-39.36-2.68-6-5-12.22-8.34-17.92-3.84-6.49-9.08-6.47-12.89,0a22.91,22.91,0,0,0-1.06,2.24q-7.75,16.93-15.5,33.88c-3.53,7.68-7.13,15.32-10.59,23-.84,1.86-2.22,4,.37,5.69,3.94,2.54,15.33.34,17.7-3.74,2.05-3.52,4.74-4.66,8.62-4.48,5,.23,10,.16,15,0,3.32-.09,5.87.83,7.22,4.07,1.57,3.79,4.66,5,8.46,4.76,7.15-.49,14.29-.2,21.44,0,6.54.17,7.37-.74,7.43-7.47s0-13.3.06-19.94c0-1.52-.88-3.73,1.13-4.38,1.53-.49,2.47,1.41,3.5,2.43,8.54,8.4,17,16.85,25.56,25.26,2.78,2.73,5.6,5.39,10,3.36,1.16-.53,2.25.57,3.34.57,6.58,0,13.91,2.19,17.76-6.12.95-2.05,3.27-2.6,5.61-2.56,5.82.08,11.65.13,17.48,0,3-.05,5.26,1.22,6.33,3.91,1.57,3.93,4.63,4.92,8.37,4.93q10.47,0,20.94,0c6.41,0,7.75-1.4,7.84-8,.08-6.81.1-13.63.18-20.44,0-1.15-.11-2.6,1.13-3.08s2,.85,2.83,1.62q7,6.74,14,13.51c5,4.86,9.87,9.89,15.08,14.53,2.55,2.28,5.74,3.84,8-.73a33.31,33.31,0,0,0,.41-8.63c0-.91,0-1.81,0-2.71,0-1.15.07-2.3.1-3.45v-.4c.06-3.5,0-7,0-10.5-.1-6.14-.26-12.27-.06-18.4.08-2.25.21-4.5.42-6.75,0-.38.06-.75.1-1.12.15-1.47.33-2.93.54-4.39C614.83,290.38,614.87,287.81,613.11,285.73Zm-93.21,41.2c-2-.8-5.2,1-5.92-2.6-.33-1.69,4.61-11.27,5.5-11.24s5.66,9.57,5.47,11.3C524.58,327.72,521.9,326.54,519.9,326.93Zm-128.73,0c-1.53-1.2-6,1.17-5.05-2.92.87-3.67,1.18-8.26,5.31-10.46.68-.36,5.49,8.9,5.3,10.65C396.36,327.72,393.52,326.59,391.17,326.92Z" transform="translate(-27.2 -258.1)"/><path class="cls-2" d="M709.94,338v.16c0,1.93,0,3.87,0,5.8,0,7.18-.56,7.76-7.55,7.77q-14.73,0-29.46,0c-7,0-8-1-8-8.15,0-15.24,0-30.48,0-46V297c-.17.08-.34.16-.5.22-3.16,1.35-6.14.91-9.1.83-5.69-.15-7.05,1-7.17,6.91-.19,10,0,19.94-.06,29.91,0,4-.05,8,0,12,0,2.79-1.22,4.51-4,4.68a58.49,58.49,0,0,1-9.45.08c-4.17-.4-4.6-3.59-4.56-7q.23-19.17.32-38.36c0-7.64-.38-8-8.19-8.21-2.74-.08-6.64-1.53-8-.24a3.35,3.35,0,0,0-.42.51c-1.17,1.7-.64,4.31-.42,6.75a16,16,0,0,1,.09,1.8c-.14,5.53-.08,11.06,0,16.6,0,3.5.07,7,0,10.5v.4c0,2.05,0,4.11-.1,6.16-.07,2.88-.2,5.75-.41,8.63q0-25.42,0-50.84,0-6.3,0-12.58v0c1.2-3,3.32-3.81,6.59-3.74,10.63.23,21.3-.38,31.92.09,16.72.75,33.41-.62,50.11,0,2.63.1,6-.31,6.73,2.9.89,3.79,1.48,7.92-.59,11.63-1,1.83-3.15,1.59-5,1.6-5,0-10,0-15,0-3.17,0-5.11,1.28-4.94,4.75s1.92,5,5.49,4.79c4.31-.22,8.64-.11,13-.16,4-.05,5.62,2.16,5.53,5.94v.5c.23,9.31.08,9.48-9.17,9.48h-9c-3.73,0-5.74,1.39-5.81,5.62s1.43,6.54,5.86,6.67c5.31.15,10.6-.84,15.93,0a8.33,8.33,0,0,1,5.1,2.17Z" transform="translate(-27.2 -258.1)"/><path class="cls-2" d="M710,338.08,710,338l0,0v0Z" transform="translate(-27.2 -258.1)"/><path class="cls-2" d="M301.31,345.68c.07,4.53-1.82,6.12-6.28,6.12-12.1,0-12.1.14-12.1-11.75,0-4.82,0-9.63,0-14.45,0-.94.23-2.13-1.07-2.45-.93-.23-1.43.56-2,1.17-2.76,2.88-5.59,5.69-8.33,8.59-2.93,3.09-5.72,3.58-8.79.07-2.52-2.87-5.3-5.51-8-8.23-.76-.77-1.28-2.19-2.75-1.43-1.12.57-.69,1.74-.7,2.68,0,6.32,0,12.63,0,18.94,0,5.52-1.13,6.6-6.73,6.79-11.58.41-11.59.4-11.59-11.26q0-26.16,0-52.32c0-2.12-.46-4.54,2-5.71s4.55.35,6.25,1.93a280.85,280.85,0,0,1,21.47,22.85c3.07,3.58,5.25,3.58,8.33.13,6.08-6.81,12.43-13.38,18.69-20a32.65,32.65,0,0,1,3.27-3.07c1.68-1.35,3.44-2.86,5.82-1.88s2.34,3.32,2.33,5.52c0,9.63,0,19.26,0,28.9h.16C301.25,326.42,301.14,336.05,301.31,345.68Z" transform="translate(-27.2 -258.1)"/><path class="cls-2" d="M362.09,306c-.63-15.37-11-22.43-23.87-23.79-8.56-.9-17.3-.18-26-.17-3.66,0-5.44,1.67-5.39,5.51.12,9.81,0,19.61,0,29.42h-.35v28.94c-.06,2.71.58,5.56,3.64,5.57,4.63,0,9.68,2,13.8-1.65.67-.59.51-2.2.57-3.35.13-2.65.22-5.31.22-8,0-3.36,1.59-4.77,5-4.63a51.69,51.69,0,0,0,11.44-.75C354.94,330.64,362.69,320.43,362.09,306ZM331.15,317.8c-5.74.05-6.59-1.29-6.59-10.43,0-8.57.55-9.19,8.23-9.19s11.26,2.86,11.28,9.22C344.1,314.87,340.55,317.73,331.15,317.8Z" transform="translate(-27.2 -258.1)"/></svg>