<svg id="Layer_1" data-name="Layer 1" xmlns="http://www.w3.org/2000/svg" viewBox="0 0 711.7 105.78"><defs><style>.cls-1{fill:#0f109b;}.cls-2{fill:#fdfdfc;}.cls-3{fill:#141670;}.cls-4{fill:#141578;}.cls-5{fill:#0f119b;}.cls-6{fill:#171575;}.cls-7{fill:#13137c;}.cls-8{fill:#141379;}.cls-9{fill:#15137e;}.cls-10{fill:#151670;}.cls-11{fill:#15127f;}.cls-12{fill:#151380;}.cls-13{fill:#15127e;}.cls-14{fill:#161574;}.cls-15{fill:#151475;}.cls-16{fill:#15176e;}.cls-17{fill:#15176d;}.cls-18{fill:#151479;}.cls-19{fill:#16156f;}.cls-20{fill:#151472;}.cls-21{fill:#14166e;}.cls-22{fill:#15147c;}.cls-23{fill:#151574;}.cls-24{fill:#15137c;}.cls-25{fill:#14166f;}.cls-26{fill:#151572;}.cls-27{fill:#16137c;}.cls-28{fill:#17166e;}.cls-29{fill:#151577;}.cls-30{fill:#16176c;}.cls-31{fill:#161575;}.cls-32{fill:#18176c;}.cls-33{fill:#16156d;}.cls-34{fill:#17176b;}.cls-35{fill:#191569;}.cls-36{fill:#16147a;}.cls-37{fill:#171669;}.cls-38{fill:#161373;}.cls-39{fill:#17156c;}.cls-40{fill:#171666;}.cls-41{fill:#18156f;}.cls-42{fill:#171766;}.cls-43{fill:#fefefe;}.cls-44{fill:#171670;}.cls-45{fill:#151576;}</style></defs><path class="cls-1" d="M657,275.19c-1.28-12.32-7.52-21.73-17.12-29.19-8-6.22-17.33-8.73-27.24-9.59h-19c-.33.3-.62.82-1,.88-16.09,2.69-28.87,10.87-35.58,25.6-9.41,20.67-8.83,41.61,5.31,60.25a42.58,42.58,0,0,0,30.11,17.08q8.63.79,17.28.93h0c.6,0,1.22,0,1.82,0h2.81c2.16-.07,4.34.23,6.46-.31,22-5.64,36.55-23.87,37.13-44.46C658.48,289.31,657.26,282.28,657,275.19Zm-53,40.12c-14.18.4-25.37-12.27-24.37-27.25-.72-16.71,11.46-25.83,25.16-25.28,14.22.57,24.85,8.36,24.83,26.41C629.59,305.11,619.28,314.88,604,315.31Z" transform="translate(-29.85 -236.41)"/><path class="cls-1" d="M741.55,302.27v15c-3.66,10-11,16.09-20.57,20.38-4.76,2.13-9.79,2.57-14.6,4a3.09,3.09,0,0,0-1.82.58h-8c-3-1.08-6.19-.38-9.28-1-9.87-1.91-18-6.6-24.15-14.57a13.36,13.36,0,0,1-2.88-7.82c.17-2.63-.39-5.46.48-7.89a6.24,6.24,0,0,1,1.76-2.59,7.28,7.28,0,0,1,.79-.63,6.15,6.15,0,0,1,1.64-.62c4.87-.41,9.76-.15,14.63-.2,4-.06,6.81,2.06,9.62,4.54,5.15,4.56,11.26,5.49,17.71,3.73s7.57-5.46,3.62-11a7.06,7.06,0,0,0-2-1.61l0,0a8.12,8.12,0,0,0-3.14-.88h0c-1.67-.17-3.42,0-5.13,0a51.26,51.26,0,0,1-24.32-4.44c-8.66-4-14.52-10.4-15.68-20.3,0-3.92,0-7.84,0-11.76.71-15,13.28-27.38,28.56-28.24,1.28-.07,2.65.42,3.82-.5h14c.19.78.78.89,1.48,1,14.82,1.69,26.61,10.3,30,24.83a6.25,6.25,0,0,1-1.35,6.13c-3.59,2-7.44.66-11.17.84-6.47,3.22-11.18-.78-15.06-4.66-4.51-4.5-9.68-4.72-15-3.93-4.24.63-8.3,3.23-8.76,7.91-.49,4.87,3,7.52,7.53,8.84,1.78.52,3.53,1.21,5.29,1.82,4,.87,8.23-1,12.1,1.12a37.19,37.19,0,0,1,17.85,5.19c2.22,1.28,5.6,2.18,6.05,5.69a7.56,7.56,0,0,1,2,1.61c1.11,2.61,2.4,5.14,3.4,7.79Q741.28,301.4,741.55,302.27Z" transform="translate(-29.85 -236.41)"/><path class="cls-1" d="M130.79,331.66c-6.22-14.65-13-29.05-19.59-43.54C106,276.55,101,264.84,95.28,253.5c-3.06-6.09-4.37-13.6-11.45-17.09h-4c-4.44,1.4-6.6,4.78-8.49,8.83C59.08,271.64,46.63,298,34.27,324.3c-1.54,3.27-3,6.6-4.42,9.91v3a7.09,7.09,0,0,0,6.56,3.05c4-.18,8,.06,12-.07,4.71-.16,8.47-2.14,10.61-6.5a13.89,13.89,0,0,1,6.88-6.62c10.13-.8,20.28-.14,30.41-.34a5.21,5.21,0,0,1,3.51,1.63h0c1.23,1.7,2.83,3.24,3.62,5.12,2.13,5.06,6.15,6.64,11.15,6.71,3.49.06,7,0,10.47,0C132.13,340.19,133.68,338.44,130.79,331.66ZM74.91,296.47c1.89-4.38,3.21-9.06,6.51-13.38,3,5,5.53,9.64,7.11,14.68,1,3.36.33,6-4.15,5.5a57.76,57.76,0,0,0-6.21-.69C72.3,302.62,73.56,299.59,74.91,296.47Z" transform="translate(-29.85 -236.41)"/><path class="cls-2" d="M711.68,280.28c-3.93-1.47-8.2.62-12.1-1.12C703.56,280,707.81,278.13,711.68,280.28Z" transform="translate(-29.85 -236.41)"/><path class="cls-2" d="M736.73,268.34c-3.59,2-7.44.66-11.17.84C729.23,268.18,733.09,269.66,736.73,268.34Z" transform="translate(-29.85 -236.41)"/><path class="cls-2" d="M741.55,301.27a6.64,6.64,0,0,1-.6-.71c-2.23-2.87-2.71-6.78-5.37-9.4a7.56,7.56,0,0,1,2,1.61C739.65,295.15,740.08,298.51,741.55,301.27Z" transform="translate(-29.85 -236.41)"/><path class="cls-3" d="M615.76,340.22c-1.84,2.06-4.26.46-6.34,1-1.59.41-3.55-1-4.82,1h-1c-1.8-2.12-4.21-.45-6.26-1-1.61-.41-3.58.93-4.88-1Z" transform="translate(-29.85 -236.41)"/><path class="cls-4" d="M741.55,301.27v1c-3.42-2.94-4.12-7.33-6-11.11a7.56,7.56,0,0,1,2,1.61C739.65,295.15,740.08,298.51,741.55,301.27Z" transform="translate(-29.85 -236.41)"/><path class="cls-1" d="M393.12,332.21c-4.28-7.21-8.58-14.41-13.27-21.35-2.8-4.13-3.06-8,.3-11.38,7.88-7.89,10.18-17.39,9.6-28.14-.85-15.56-10.55-28.12-25.72-31.91-8.95-2.23-18.11-.55-27.16-1.06a101.49,101.49,0,0,0-21.27,0c-3.5-.08-7-.19-6.89,4.87-.69,1.06-.45,2.25-.46,3.4q0,41.65,0,83.32c0,1.15-.23,2.34.45,3.41-.16,2.91.27,5.44,3.88,5.87,4.59,1,9.23.37,13.84.41,5.64.05,7.61-2.19,7.83-7.71s-.9-11.16.63-16.67c2.19-5.08,4.23-5.75,9.83-4.1a11.83,11.83,0,0,1,6.81,5.66c3.21,5.21,6.13,10.59,9.11,15.93,2.45,4.41,5.82,7.39,11.13,7.44,5.65.06,11.31.09,17,0C393.48,340.1,395.6,336.39,393.12,332.21Zm-31.47-53.32c-2.43,5.78-8.14,6.44-13.33,7.32-3.36.57-6.81-.06-10.2-.86-3.18-.75-2.44-3.58-3.24-5.45-.65-1.54-.13-3.59-.13-5.15-.89-11.25,3-14.73,16.11-12.65C361.38,263.77,364.77,271.44,361.65,278.89Z" transform="translate(-29.85 -236.41)"/><path class="cls-1" d="M223.8,280.17c.26-10.2-4.4-18.62-10.76-25.81-7.93-9-17.42-15.75-30.44-15-2.22.13-4.65.74-6.67-1a166.77,166.77,0,0,0-27.28,0c-3.6.54-7.38-1.05-10.87.87a19,19,0,0,0-1.5,8.19c.06,27.34,0,54.69.06,82,0,1.63-.4,3.32.43,4.88.13,2.11-.65,4.76,2.88,4.88,16.11.59,32.22,1.34,48.27-1,16.09-1.21,31.63-17.32,34.89-34.84A68.38,68.38,0,0,0,223.8,280.17ZM185.75,313.1c-6.87,2.4-13.83,3.18-20.93,1-3-3.21.51-7.54-1.86-10.87-.05-9.75-.12-19.5-.15-29.25,0-2.92-.39-5.9,1.13-8.63,6.22-6.63,24-2.47,29.42,6.27C200.56,283.17,200.94,303.74,185.75,313.1Z" transform="translate(-29.85 -236.41)"/><path class="cls-1" d="M479.52,261.39c-7.83-.06-10.14-3.32-8.26-11.29.48-2,.16-4.28.42-6.4.35-2.85.93-5.65,4.86-5.34,4.92-1,9.9-.35,14.85-.41,10-.12,19.93.18,29.88-.1,7.47-.22,14.79,1.58,22.26,1.14,2.78-.16,4.78,1.21,4.12,4.55-4.1,10.69-10.6,20.12-15.94,30.16-6.79,12.75-14.13,25.22-20.81,38-2.38,4.56,2.19,3.84,4.6,4.49a77.2,77.2,0,0,1,18.23,0l-.1-.07c4.28,1.64,8.86-.27,13.17,1.11a5.78,5.78,0,0,1,2.82,5.29c0,3.8.19,7.62,0,11.4-.18,2.82-.86,5.65-4.79,5.31-1.24.75-2.6.44-3.91.44q-32.43,0-64.86,0c-5.75,0-7.09-1.64-6.39-7.6,3.7-9.29,9.41-17.51,14-26.3,6.9-13.09,14.78-25.66,21.24-39a10.63,10.63,0,0,0,.71-4.27c-5.19-1.45-10.49-.28-15.72-.66C486.44,261.59,482.94,262.36,479.52,261.39Z" transform="translate(-29.85 -236.41)"/><path class="cls-5" d="M455.81,238.37c7.76.06,8,0,9.5,7.39a24.9,24.9,0,0,1-.35,11c-.91,3.7-2.74,4.87-6.16,4.6-8.41,1-16.85.21-25.27.41-2.41.05-4.71-.05-5.81,2.67-.09,3.28-.3,6.57,1,9.71,1.51,1.61,3.45,1.69,5.49,1.67,6.29-.05,12.59.12,18.87-.08a10.34,10.34,0,0,1,7.75,2.52c1.66,1,.48,2.61.88,3.88a24.17,24.17,0,0,1,0,10.23c-.47,1.6.88,3.53-.88,4.9a13.12,13.12,0,0,1-6.72,1.48c-6.48-.07-13-.05-19.45,0-1.76,0-3.73-.54-5,1.34-2.78,4.56-2.75,11.16.07,15,6.52,2.37,13.24,1.86,19.95,1.32,3.46-.06,6.92,0,10.36-.22,2.58-.18,4.46.57,5.66,2.87a66.48,66.48,0,0,1,0,17.26c-.11.71.19,1.61-.86,1.9a19,19,0,0,1-8.22,1.5c-15.65-.08-31.31,0-47-.05-6.31,0-8.43-2-8.44-8.33q-.09-43.39,0-86.78c0-4.4,1.23-5.45,5.65-5.67,1.61-.08,3.34.59,4.81-.62l-.1.07c13.1-1,26.22-.17,39.33-.4C452.54,237.91,454.24,237.54,455.81,238.37Z" transform="translate(-29.85 -236.41)"/><path class="cls-1" d="M295.88,317.22c1.77,0,2.42.92,2.93,2.59,1.85,6,1,11.87-.24,17.75a2.31,2.31,0,0,1-2.68,1.67c-3.26,1-6.6.4-9.9.42-14.48.08-29,.05-43.45,0-1.64,0-3.34.4-4.91-.43-3.67-.39-4-3-3.89-5.87a54.27,54.27,0,0,1,0-15.22l-.06.1c.21-.27.55-.53.55-.81q.19-25.14,0-50.27c0-.28-.34-.55-.55-.81l.06.1a135,135,0,0,1,0-24.21c1.4-6.1,6.38-3.1,9.87-3.87,7.94-1,15.91-.37,23.86-.4,6.79,0,13.6-.57,20.37.38l-.1-.08c1.09,1.16,2.5.53,3.76.63,3.5.26,5.52,2.1,5.68,5.57.17,3.63,0,7.27,0,10.91,0,3.12-2.31,4.54-4.45,6.1l.07-.07c-7.55.95-15.13.15-22.69.44-2.13.08-4.29-.36-6.39.34-1.88.84-2.56,2.78-3.85,4.17-1.06,6.76,1,9.42,7.33,9.47s12.61.12,18.9,0c3.25-.08,5.88.7,7.72,3.49l-.07-.07a67.14,67.14,0,0,1,0,17.23c.2,1.43-.43,2-1.86,1.85-7.22,1-14.49.18-21.72.48-2.14.08-4.3-.37-6.4.34-4,3.53-5.42,10.21-2.9,14.34,1.53,2.5,4.07,3.2,6.9,3,5.21.38,10.37.76,15.59-.45C287.56,315,291.69,316.91,295.88,317.22Z" transform="translate(-29.85 -236.41)"/><path class="cls-6" d="M411.68,238.27a2.53,2.53,0,0,1-2.09,1.11c-7.89.82-7.88.83-7.88,8.91q0,40.31,0,80.61c0,8.88,1.46,10.3,10.46,10.3q17.43,0,34.88,0c5.95,0,11.92.37,17.8-1-1.67,1.93-3.89,2-6.23,2-16.48,0-33,0-49.45,0-6.62,0-8.48-1.87-8.48-8.43q0-42.64,0-85.28c0-8,0-8,8-8.1C409.69,238.38,410.68,238.31,411.68,238.27Z" transform="translate(-29.85 -236.41)"/><path class="cls-7" d="M137.78,239.24c-1.38,6-1,12.2-1,18.32q0,38.4,0,76.79c-1.83-1.18-.92-3-.92-4.52q-.09-42.19-.07-84.4C135.78,243.11,135.84,240.89,137.78,239.24Z" transform="translate(-29.85 -236.41)"/><path class="cls-8" d="M308.71,243.23q0,45.06,0,90.13c-1.61-.83-.94-2.34-.94-3.54q-.06-41.54,0-83.06C307.76,245.55,307.09,244,308.71,243.23Z" transform="translate(-29.85 -236.41)"/><path class="cls-9" d="M469.62,332.08c.68,6.53,1.27,7.11,7.33,7.11l67.83,0c-1,1.74-2.7.93-4,.93q-33,.09-66,0C468.36,340.19,467.28,338.43,469.62,332.08Z" transform="translate(-29.85 -236.41)"/><path class="cls-10" d="M547.65,243.54c-.47-3.7-3-4-6.13-4.21-21.65-1.52-43.32-.65-65-1,1.18-1.84,3-.92,4.53-.92,15.63-.08,31.27-.29,46.89.07,5.56.12,11.13.81,16.73,1C547.13,238.63,550.13,239.84,547.65,243.54Z" transform="translate(-29.85 -236.41)"/><path class="cls-11" d="M237.63,339.23h58.26c-.65,1.45-2,.95-3,.95q-26.1,0-52.2,0C239.6,340.18,238.28,340.68,237.63,339.23Z" transform="translate(-29.85 -236.41)"/><path class="cls-12" d="M233.64,266.35c1.52,1,1.11,2.65,1.11,4.09q0,21.85,0,43.71c0,1.44.41,3-1.11,4.09Z" transform="translate(-29.85 -236.41)"/><path class="cls-13" d="M139.65,339.23c16.09-.18,32.2.47,48.27-1-3,1.7-6.59,1.71-9.78,1.81-12.14.4-24.3.16-36.44.15C140.87,340.19,140,340.21,139.65,339.23Z" transform="translate(-29.85 -236.41)"/><path class="cls-14" d="M293.86,279.29a14.68,14.68,0,0,0-10.21-3c-6,.24-12,.21-18,0-5.74-.18-8-4.29-5.78-9.93,1.14,7.34.38,9.06,9.3,9,6.49-.06,13,.06,19.48,0C291.62,275.24,293.42,276.3,293.86,279.29Z" transform="translate(-29.85 -236.41)"/><path class="cls-15" d="M312.58,339.23c4.65,0,9.31.09,13.95-.06,5-.16,6.87-2.49,7.23-7.41.39-5.5-1.42-11.15,1.12-16.5-.05,6.13-.34,12.26-.06,18.36.17,3.53-1.68,5.86-4.34,6.13C324.56,340.35,318.48,341.23,312.58,339.23Z" transform="translate(-29.85 -236.41)"/><path class="cls-16" d="M287.84,238.35l-44.22,0c.48-1.23,1.58-1,2.52-1q19.59,0,39.18,0C286.24,237.41,287.36,237.1,287.84,238.35Z" transform="translate(-29.85 -236.41)"/><path class="cls-17" d="M455.81,238.37l-44.23,0c.49-1.24,1.6-.94,2.53-.94q19.59,0,39.18,0C454.22,237.4,455.32,237.14,455.81,238.37Z" transform="translate(-29.85 -236.41)"/><path class="cls-18" d="M292.77,261.48c5.49-4.75,4-11.14,3.85-17.1-.06-2.73-2.06-4.41-4.8-4.94-1.4-.27-3.07.47-4.07-1.17,1.65,0,3.31.06,5,.14,3.07.14,4.84,1.89,5,4.83a113.36,113.36,0,0,1,0,13.42C297.45,259.29,296.35,261.85,292.77,261.48Z" transform="translate(-29.85 -236.41)"/><path class="cls-19" d="M460.82,278.3c-8.65-3.83-17.77-1.21-26.65-2-2-.18-4.42.57-5.46-2.14,8.71,2.41,17.6.57,26.39,1.11C457.52,275.45,460,275.14,460.82,278.3Z" transform="translate(-29.85 -236.41)"/><path class="cls-20" d="M65.86,327.06c4.44-1.84,9.08-.58,13.62-.79,5.09-.24,10.21-.07,15.32,0,2,0,4.07-.29,5,2.14-4.06-1.85-8.38-1-12.6-1.11C80.08,327.11,73,327.11,65.86,327.06Z" transform="translate(-29.85 -236.41)"/><path class="cls-21" d="M429.63,300.12c.68-2.63,2.85-1.75,4.51-1.82,8.89-.39,17.84.78,26.68-1-.88,2.13-2.71,2-4.57,2-7.13,0-14.26,0-21.39,0C433.07,299.29,431.25,299.08,429.63,300.12Z" transform="translate(-29.85 -236.41)"/><path class="cls-22" d="M427.72,264.48c.13-3.12,2.35-3.14,4.62-3.13,8.82,0,17.64,0,26.46,0-1.74,2-4,.84-6,.89-6.29.17-12.6.18-18.89,0A7.67,7.67,0,0,0,427.72,264.48Z" transform="translate(-29.85 -236.41)"/><path class="cls-23" d="M295.88,317.22c-7.8-1.19-15.6.13-23.4,0-1.59,0-3.32.48-4.71-.81,8.54.61,17.06-2.29,25.61-.18C294.28,316.45,295.4,316,295.88,317.22Z" transform="translate(-29.85 -236.41)"/><path class="cls-24" d="M263.76,262.19c5.14-1.86,10.45-.53,15.67-.79,4.46-.22,8.94,0,13.41,0-1.73,1.9-4,.88-5.95.9C279.18,262.39,271.47,262.25,263.76,262.19Z" transform="translate(-29.85 -236.41)"/><path class="cls-25" d="M263.77,299.12c5.48-1.81,11.12-.53,16.68-.82,3.81-.19,7.63,0,11.44,0-1.71,1.94-4,.9-6,.92C278.55,299.32,271.16,299.17,263.77,299.12Z" transform="translate(-29.85 -236.41)"/><path class="cls-26" d="M175.93,238.37H148.65c1.89-2.08,4.36-1,6.46-.89C162.05,237.81,169.08,236.18,175.93,238.37Z" transform="translate(-29.85 -236.41)"/><path class="cls-27" d="M479.52,261.39c7.2,0,14.4-.05,21.59,0,1.56,0,3.34-.59,4.5,1.12-7.2-.05-14.41,0-21.61-.19C482.51,262.27,480.69,263.21,479.52,261.39Z" transform="translate(-29.85 -236.41)"/><path class="cls-17" d="M222.81,303.39c1.08-7.71,1-15.47,1-23.22,2,5.91,1.12,12,.42,17.9C224,299.65,225,302.13,222.81,303.39Z" transform="translate(-29.85 -236.41)"/><path class="cls-28" d="M233.74,242.24q0,12.1,0,24.21c-2.12-6.82-.41-13.82-.9-20.72C232.72,244.56,232.13,243.05,233.74,242.24Z" transform="translate(-29.85 -236.41)"/><path class="cls-29" d="M449.65,316.41c-6.75,1.16-13.49,2-19.95-1.32C436.28,316.59,443,316.1,449.65,316.41Z" transform="translate(-29.85 -236.41)"/><path class="cls-30" d="M336.87,238.37H315.6A47.29,47.29,0,0,1,336.87,238.37Z" transform="translate(-29.85 -236.41)"/><path class="cls-31" d="M533.73,316.19l-18.23,0A35.11,35.11,0,0,1,533.73,316.19Z" transform="translate(-29.85 -236.41)"/><path class="cls-32" d="M465.71,336.32q0-8.62,0-17.26A31.73,31.73,0,0,1,465.71,336.32Z" transform="translate(-29.85 -236.41)"/><path class="cls-33" d="M293.75,296.45q0-8.62,0-17.23A31.91,31.91,0,0,1,293.75,296.45Z" transform="translate(-29.85 -236.41)"/><path class="cls-34" d="M233.7,318.14q0,7.61,0,15.22A25.57,25.57,0,0,1,233.7,318.14Z" transform="translate(-29.85 -236.41)"/><path class="cls-31" d="M546.8,317.23c-4.38-.55-8.94,1.18-13.17-1.1C538,317,542.57,314.94,546.8,317.23Z" transform="translate(-29.85 -236.41)"/><path class="cls-35" d="M461.7,292.41V282.18A11.67,11.67,0,0,1,461.7,292.41Z" transform="translate(-29.85 -236.41)"/><path class="cls-36" d="M655.62,274.21c2,7.66,3.07,15.36,1,23.2C657.25,289.63,655.56,282,655.62,274.21Z" transform="translate(-29.85 -236.41)"/><path class="cls-37" d="M664.44,308.23a28,28,0,0,1,16.27,0Z" transform="translate(-29.85 -236.41)"/><path class="cls-38" d="M711.53,303.41l-11.12-3.11C704.39,300.35,708.63,299.5,711.53,303.41Z" transform="translate(-29.85 -236.41)"/><path class="cls-39" d="M661.54,319.37c-2-2.92-.73-6.16-.8-9.24,0-1.35,1.28-2.1,2.83-1.71C660.34,311.6,662,315.68,661.54,319.37Z" transform="translate(-29.85 -236.41)"/><path class="cls-40" d="M661.55,277.46a19.49,19.49,0,0,1,0-13.24Q661.54,270.83,661.55,277.46Z" transform="translate(-29.85 -236.41)"/><path class="cls-41" d="M711.68,280.28c-4-.55-8.27,1.38-12.1-1.12C703.56,280,707.81,278.13,711.68,280.28Z" transform="translate(-29.85 -236.41)"/><path class="cls-42" d="M736.73,268.34c-3.59,2-7.44.66-11.17.84C729.17,267.36,733,268.77,736.73,268.34Z" transform="translate(-29.85 -236.41)"/><path class="cls-43" d="M163.94,265.37c-1.52,2.73-1.14,5.71-1.13,8.63,0,9.75.1,19.5.15,29.25-1.38-3.48-.53-7.11-.6-10.67-.16-7.24,0-14.48-.07-21.73C162.27,268.81,162.41,266.91,163.94,265.37Z" transform="translate(-29.85 -236.41)"/><path class="cls-43" d="M185.75,313.1c-6.83,3.34-13.79,4-20.93,1C171.92,316.28,178.88,315.5,185.75,313.1Z" transform="translate(-29.85 -236.41)"/><path class="cls-44" d="M162.81,274c0,9.75.1,19.5.15,29.25-1.44-.83-1.16-2.25-1.16-3.54,0-9.94,0-19.88,0-29.82,0-1.86-.05-3.72,2.16-4.52C162.42,268.1,162.8,271.08,162.81,274Z" transform="translate(-29.85 -236.41)"/><path class="cls-45" d="M185.75,313.1c-4.26,4-17,4.62-20.93,1C171.92,316.28,178.88,315.5,185.75,313.1Z" transform="translate(-29.85 -236.41)"/></svg>