<svg id="Layer_1" data-name="Layer 1" xmlns="http://www.w3.org/2000/svg" viewBox="0 0 764.56 69.81"><defs><style>.cls-1{fill:#2c328e;}</style></defs><path class="cls-1" d="M149.55,276.62q0-14.36,0-28.7c0-1.67.13-3.33,1.77-4.26,1.88-1.06,3.58-.15,5,.89,3.19,2.27,5.49,5.51,8.12,8.38q7.2,7.88,14.19,16c1.95,2.25,3.48,1.89,5.29-.13,6.38-7.1,12.82-14.13,19.24-21.18a9.35,9.35,0,0,1,1.16-1.27c2-1.61,4-4,6.84-2.7s2,4.13,2,6.51q.12,27.13.16,54.28c0,5.17-1.54,6.61-6.59,6.25-1.91-.14-3.83-.19-5.75-.3-4.07-.23-4.91-1.07-4.95-5.28,0-6.18,0-12.37,0-18.56,0-1.2.53-2.88-.91-3.39-1.15-.4-1.92,1-2.69,1.81q-3.47,3.6-6.82,7.31c-3.21,3.55-4.85,3.69-8.13.34-2.65-2.71-5.15-5.57-7.72-8.34-.6-.64-1-1.79-2.11-1.4s-1.23,1.62-1.08,2.67c.95,6.63-.59,13.26,0,19.88.32,3.58-1.51,4.86-4.57,4.95-2.49.07-5,.05-7.47,0-3.8,0-4.8-1-4.82-5,0-9.58,0-19.15,0-28.73Z" transform="translate(-14.49 -241.96)"/><path class="cls-1" d="M466.08,266.27c-3.65.65-6.84-.93-10.12-4.49-6.75-7.32-20.07-3.3-24.22,6.8-3.31,8.09-1.77,17.31,3.8,22.65,5.27,5.07,16.29,5.43,21.32.69,1.1-1,2.36-2.11,1.69-3.85s-2.22-1.24-3.53-1.19c-8.86.3-10.9-2.33-9-11.48.44-2.13,1.47-3.26,3.68-3.25,7.55.05,15.09-.08,22.64.06,3.8.06,4.61,1.24,4.76,5.17.4,11-2.41,20.62-11.15,27.51-16,12.61-47.67,7.78-52.43-20-2.26-13.22-.2-25.36,10.09-34.34,12.48-10.89,33.42-12.85,46.65,2.79a23.22,23.22,0,0,1,4,6.83c1.71,4.48.7,6.05-4,6.12C469.18,266.28,468.05,266.27,466.08,266.27Z" transform="translate(-14.49 -241.96)"/><path class="cls-1" d="M273.64,278.35c-1.83-2.13-2.35-4-1-6.55a19.26,19.26,0,0,0-16.52-28.57c-8-.17-16.05-.16-24.08-.17-4.07,0-5,1-5,5.17q0,14.18,0,28.36c0,9.57,0,19.14,0,28.71,0,3.93,1.09,5.08,4.84,5,9.72-.08,19.44.45,29.14-.52,7.27-.73,12.65-4.46,15.27-11.47S278.76,284.33,273.64,278.35ZM243,263.06c.16-3.67,1.89-5.28,5.38-5a50,50,0,0,0,5,.56c3.17,0,4.82,1.29,4.78,4.73s-1.43,5.38-4.83,5.82c-1.23.16-2.47.16-3.7.23C244,269.38,242.79,268.24,243,263.06Zm13,32c-3.15.1-6.29,0-9.44,0-2.55,0-3.68-1.35-3.62-3.91,0-.82,0-1.63,0-2.45.09-4,1-4.91,4.84-4.94h2.92c2.37.13,3.95.17,5.52.32,3.52.34,5.27,2.41,5.16,6C261.36,293,259.36,294.94,256.07,295Z" transform="translate(-14.49 -241.96)"/><path class="cls-1" d="M405.22,304.83c-2.63-4.61-5.27-9.21-8.11-13.69-1.83-2.89-1.66-5.17.62-7.79,7-8.07,7.91-17.38,3.71-27s-12.46-13-22.09-13.27c-7.23-.18-14.48.07-21.72.13-4.6,0-5.84,1.29-5.84,6q0,13.67,0,27.33c0,7.71,0,15.41,0,23.12,0,8.7-.73,12.15,10.84,10.69.55-.07,1.13,0,1.69,0,2.79-.16,4.4-1.47,4.37-4.57s.41-6.35,0-9.45c-.56-4.77,2.57-7.49,7.7-4.54a8.39,8.39,0,0,1,3.2,3.5q2.79,5.19,5.63,10.35c1.41,2.54,3.3,4.25,6.34,4.62a49.59,49.59,0,0,0,10.82.22C406.56,310.08,407.33,308.53,405.22,304.83Zm-19-33.46c-1.56,2.8-4.56,4.09-9.49,4.1-.79,0-1.59.06-2.37,0-5.11-.48-5.68-1.11-5.88-6.4,0-.35,0-.7,0-1-1.57-9.78,1.68-10.85,11.34-9.42C386.29,259.55,389.28,265.88,386.2,271.37Z" transform="translate(-14.49 -241.96)"/><path class="cls-1" d="M69.08,276.65q0,13.82,0,27.64c0,4.88-1.12,6-5.73,6.07-2.26,0-4.53.08-6.79,0-3.57-.15-4.79-1.46-4.85-5.2-.09-5.6-.2-11.2-.13-16.8,0-3.14-1.4-4.55-4.23-4.62q-5.94-.15-11.87-.1c-2.62,0-3.45,1.78-3.44,4.2,0,5.6,0,11.19,0,16.79,0,4.82-.93,5.71-5.55,5.74-2.6,0-5.2.06-7.8,0-2.42-.08-3.72-1.44-3.85-4,0-.47,0-.93,0-1.4q-.16-27.12-.33-54.25c0-6.76.7-7.5,7.08-7.5,2,0,4.08,0,6.11,0,3-.07,4.38,1.4,4.37,4.44q0,7.36,0,14.71c0,4.05,1.15,5.27,5,5.32,3.39.05,6.79.07,10.18,0,3-.07,4.57-1.56,4.52-4.81-.08-4.9,0-9.8,0-14.7,0-3.79,1-4.85,4.53-4.92,2.72-.06,5.43,0,8.15,0,3,0,4.52,1.37,4.49,4.69-.1,9.57,0,19.14,0,28.72Z" transform="translate(-14.49 -241.96)"/><path class="cls-1" d="M769.6,264c-4.57,1.21-7.81-.74-11.08-4-2.93-2.93-7-2.94-10.81-1.47-2.4.92-4.15,2.6-4.11,5.39s2,4.3,4.36,5.16c4.2,1.51,8.66,1.4,13,2.19,5.55,1,10.85,2.58,14.48,7.45,6.41,8.58,4.06,21.8-5.08,27.47-10.4,6.45-21.36,7.06-32.41,1.93A19.78,19.78,0,0,1,727.1,295c-.85-3,.36-5.09,3.4-5.46,5.51-.69,10.89-1.46,15.16,4,2.46,3.15,11.65,2.65,14.68,0,2.59-2.29,2.16-5.77-1-7.39-3.54-1.82-7.46-1.91-11.26-2.09a26.94,26.94,0,0,1-14.5-5.18c-7.52-5.31-8.32-20.24-2-28,8.5-10.51,28.58-11.39,38.59-2.41a19,19,0,0,1,6,9.9c1,4.12,0,5.63-4.18,5.71C771.18,264,770.39,264,769.6,264Z" transform="translate(-14.49 -241.96)"/><path class="cls-1" d="M641.92,264c-3.11.88-5.92-.41-8.62-3.36-3-3.31-8.67-3.82-12.28-1.92-2,1.06-3.62,2.54-3.6,5,0,2.68,1.79,4.25,4,5.14,4.26,1.72,8.87,1.55,13.31,2.35s8.51,2,12.14,4.89c8.85,7,8,25.17-4.57,31.3-10.11,4.91-20.19,5.46-30.36.68a18.49,18.49,0,0,1-10.84-13.84c-.62-3.25.27-4.59,3.41-4.94a60,60,0,0,1,6.41-.51,9.16,9.16,0,0,1,7.2,3.27c3.38,3.8,11,4.67,15.26,2a4.68,4.68,0,0,0,2.46-4.58c-.14-1.87-1.39-2.81-2.89-3.52-4-1.87-8.39-1.57-12.62-2.12-7.23-.94-13.95-3.36-17.2-10.6-5.11-11.4-1-26.54,15.3-30.06,7.89-1.7,15.75-1.43,22.9,3.2,4.47,2.9,7.79,6.76,8.68,12.31.69,4.3-.17,5.23-4.35,5.29C644.62,264,643.6,264,641.92,264Z" transform="translate(-14.49 -241.96)"/><path class="cls-1" d="M322.78,268.81c0-7.78,0-14.08,0-20.38,0-3.76,1.24-5.15,4.8-5.18,12.38-.08,11.1-.84,11.17,11.08.06,10,.2,20.06.29,30.09a45.29,45.29,0,0,1-1.42,11c-3.5,14.37-22.24,18.88-32.9,15-12.2-4.47-16.33-10.22-17.22-23.6-.55-8.41.44-16.77.11-25.16-.19-4.75.06-9.52-.07-14.27-.08-2.87,1.29-4.06,3.82-4.15s5.19,0,7.79-.07c2.83-.05,4.2,1.49,4.2,4.29q0,15.57-.08,31.15a47.48,47.48,0,0,0,.82,11.1c.73,3.14,2.52,5,5.7,5.53a20,20,0,0,0,5.4.19c4.94-.61,6.94-2.64,7.42-7.82A155.31,155.31,0,0,0,322.78,268.81Z" transform="translate(-14.49 -241.96)"/><path class="cls-1" d="M521.7,267c0-6.18,0-12.37,0-18.55,0-4,1.16-5.11,5.12-5.26,10.18-.36,10.12-.36,10.64,10.45.56,11.53.26,23.05.09,34.59-.2,13.39-8.88,21.57-22.41,23.22-11,1.34-22.6-4.4-26.58-13.31-1.79-4-2.16-8.33-2.19-12.63-.1-11.89-.05-23.78,0-35.67,0-5.79.87-6.69,6.42-6.84,9.23-.24,9.46,0,9.5,9.53.05,11.56,0,23.11.3,34.66.14,5.84,2.79,8.08,8.71,8.32,6.44.26,9.38-1.78,10.17-7.52C522.41,281.07,521.66,274,521.7,267Z" transform="translate(-14.49 -241.96)"/><path class="cls-1" d="M720.11,302.92c-8.29-18.81-16.81-37.52-25.2-56.28-1.09-2.45-2.66-4.08-5.38-4-2.92,0-4.62,1.74-5.83,4.46-5.56,12.56-11.26,25.06-16.89,37.6-3.08,6.84-6.17,13.67-9.12,20.57-1.46,3.43-.53,4.91,2.92,5.09,1.92.1,3.85-.07,5.76.05,4.37.26,7.73-1.23,9.67-5.5a5,5,0,0,1,5-3c5.77,0,11.53.12,17.3.18,1.91,0,4,.53,4.63,2.3,2,5.73,6.17,6.54,10.29,6h2.23C722.67,310.36,723.16,309.85,720.11,302.92Zm-30.94-16.11a23.48,23.48,0,0,1-3-.18c-1.89-.34-2.84-1.48-2-3.46,1.2-3,2.44-6,3.85-8.89,1.13-2.33,2.47-2.16,3.52.15s2.1,4.62,3,7C696.16,285.75,694.86,287,689.17,286.81Z" transform="translate(-14.49 -241.96)"/><path class="cls-1" d="M140.47,304.25c-2.27-6.22-5.38-12-8-18.05-5.81-13.22-11.74-26.38-17.69-39.54-1.84-4.07-5.71-5.28-8.86-3a9.81,9.81,0,0,0-2.87,4.25q-7.44,16.59-14.85,33.2c-3.44,7.7-6.87,15.39-10.23,23.13-2.11,4.85-1.31,6.07,3.74,6.09,1.7,0,3.4-.09,5.09,0a8.24,8.24,0,0,0,8.57-5,5.76,5.76,0,0,1,5.41-3.51c5.77,0,11.53.13,17.3.16,2.11,0,4.09.85,4.82,2.69,2.06,5.26,6,6.17,9.88,5.6,1.87,0,2.88,0,3.9,0C141.72,310.29,142.29,309.24,140.47,304.25Zm-27.91-17.52a22.28,22.28,0,0,1-3.37,0v0c-.91,0-1.81,0-2.72,0-2.39-.12-3.28-1.44-2.44-3.73a92,92,0,0,1,3.67-9c.76-1.56,2.16-2.31,3.19,0,1.33,3,2.68,5.91,3.84,8.94C115.5,285,114.7,286.42,112.56,286.73Z" transform="translate(-14.49 -241.96)"/><path class="cls-1" d="M570.53,243.24H586.8c3.36,0,4.91,1.81,5,5.2.19,10.31,0,10.52-9.06,10.28-3.5-.1-7,.12-10.51.11-2.71,0-4.72.76-4.74,4,0,3.95,1,5,4.73,5,4.18,0,8.37,0,12.55,0,3.61,0,4.92,1.39,5,5,0,.47,0,.94,0,1.41,0,10.26-.07,8.52-9,9.23a59.59,59.59,0,0,1-8.12-.24c-3.46-.2-4.73,1-4.83,4.56,0,.94,0,1.88,0,2.81-.23,3,1.31,4.16,4.06,4.18,5.43,0,10.86.13,16.28.23.89,0,2.13-.19,2.62.32,3.4,3.47,1.67,7.89,1.63,11.91,0,2.7-2.33,3-4.51,3.08a147.67,147.67,0,0,1-21.65-.33c-3.1-.35-6.3.28-9.46.29-4.75,0-6.13-1.3-6.13-6.2,0-9.45.29-18.89.29-28.34,0-8.86-.24-17.72-.32-26.59,0-4.94,1-6,5.73-6S565.78,243.23,570.53,243.24Z" transform="translate(-14.49 -241.96)"/></svg>