<svg id="Layer_1" data-name="Layer 1" xmlns="http://www.w3.org/2000/svg" viewBox="0 0 645.7 96.78"><defs><style>.cls-1{fill:#0a119e;}.cls-2{fill:#fefefe;}.cls-3{fill:#fdfdfd;}.cls-4{fill:#10137e;}.cls-5{fill:#fcfdfd;}.cls-6{fill:#fdfdfc;}.cls-7{fill:#10147e;}.cls-8{fill:#131672;}.cls-9{fill:#11176d;}.cls-10{fill:#131575;}.cls-11{fill:#131770;}.cls-12{fill:#0f147f;}.cls-13{fill:#111580;}.cls-14{fill:#0e147e;}.cls-15{fill:#11147b;}.cls-16{fill:#11137e;}.cls-17{fill:#0e137e;}.cls-18{fill:#0f157e;}.cls-19{fill:#11137d;}.cls-20{fill:#111570;}.cls-21{fill:#121673;}.cls-22{fill:#11157b;}.cls-23{fill:#0f147d;}.cls-24{fill:#121478;}.cls-25{fill:#12147a;}.cls-26{fill:#111476;}.cls-27{fill:#11156e;}.cls-28{fill:#10147a;}.cls-29{fill:#111478;}.cls-30{fill:#111272;}.cls-31{fill:#121472;}.cls-32{fill:#111472;}.cls-33{fill:#111671;}.cls-34{fill:#10147c;}.cls-35{fill:#10137c;}.cls-36{fill:#151670;}.cls-37{fill:#12166d;}.cls-38{fill:#121770;}.cls-39{fill:#10137d;}.cls-40{fill:#0e157e;}.cls-41{fill:#0f1480;}.cls-42{fill:#11147e;}.cls-43{fill:#0f127f;}.cls-44{fill:#11147f;}.cls-45{fill:#10157c;}.cls-46{fill:#101376;}.cls-47{fill:#111474;}.cls-48{fill:#13166f;}.cls-49{fill:#121676;}</style></defs><path class="cls-1" d="M622.61,258.36c.17.83.34,1.66.5,2.49A11.34,11.34,0,0,0,622.61,258.36Zm-1,18.24c.09,0,.18-.12.27-.38a.45.45,0,0,0,0-.16Q621.8,276.33,621.63,276.6Zm1-18.24c.17.83.34,1.66.5,2.49A11.34,11.34,0,0,0,622.61,258.36Zm-1,18.24c.09,0,.18-.12.27-.38a.45.45,0,0,0,0-.16Q621.8,276.33,621.63,276.6Zm1-18.24c.17.83.34,1.66.5,2.49A11.34,11.34,0,0,0,622.61,258.36Zm-1,18.24c.09,0,.18-.12.27-.38a.45.45,0,0,0,0-.16Q621.8,276.33,621.63,276.6Zm1-18.24c.17.83.34,1.66.5,2.49A11.34,11.34,0,0,0,622.61,258.36Zm-.71,17.86a.45.45,0,0,0,0-.16q-.13.27-.3.54C621.72,276.6,621.81,276.48,621.9,276.22Zm49.78-15.75c-4.91-1.55-10.07-1.39-15.1-2.11-.07-.15-.12-.39-.23-.43-6.15-2.18-9.46-5.65-8.54-9,1.31-4.72,8.51-7.89,14-6.88,4.76.88,8.1,3.75,11.66,6.48.4.74.85,1.58,1.63,1.82h0l.73.06h.09c5.05.53,10.25,1.48,15.16,0a0,0,0,0,0,0,0s0,0,0,0,0,0,0,0,0,0,0,0,0,0,0,0,0,0,0,0,0,0,0,0,0,0,0,0,0,0,0,0,0,0,0,0,0,0,0,0,0,0,0,0a15.71,15.71,0,0,0,2.82-1.08,4.71,4.71,0,0,0,.56-1.87c1.27-4.57-.16-8.47-3-12-.54-3-3.15-4.31-5.14-6.12-5.06-5.73-11.92-7.57-19-8.85-1-.18-2.38.6-3-1h-10c-6.86,1.94-13.76,3.54-19.82,7.8-3.11,2.17-4.71,5.6-8.16,8.36,0-3.41.1-6,0-8.61-.18-3.43-2.11-5.42-5.56-5.52-3.81-.1-7.63.07-11.44.12q-18.79-.07-37.6-.14c-.94,0-2-.26-2.53,1-1.43-.2-2,.41-1.84,1.84a1.49,1.49,0,0,0-1,1.53q0,17.56,0,35.14a1.44,1.44,0,0,0,.86,1.49c0,8.6,0,17.19.17,25.79.06,3-.95,4.17-4,4.11q-11.46-.23-22.93,0c-3,0-4.22-1-4.1-4.05.14-3.31-.07-6.63-.12-9.94.13-2.41.81-4.89-1-7q.09-22.67.17-45.31a8.81,8.81,0,0,0-.07-1.18,7,7,0,0,0-1.85-2.84,8.18,8.18,0,0,0-1.73-1.22,30.54,30.54,0,0,0-7.4-.21,24.81,24.81,0,0,1-6.43.41,8,8,0,0,0-3.4.62c-1.81.8-2.83,2.47-3.11,5.21l0,.3q.13,35.08.17,70.18c-3.24-1.22-3.37-4.6-4.55-7.05-6.77-14.08-13.23-28.3-19.77-42.48-3.3-7.15-6.49-14.35-9.87-21.46-.66-1.38-.95-3.21-2.77-3.84a10.7,10.7,0,0,0-3.32-1.86,29.09,29.09,0,0,0-5.27.21,11.14,11.14,0,0,0-2.75,1.65c-3.77,3.49-4.87,8.38-6.83,12.82,0,0,0,0,0,0v0q-3.06,6.56-6.14,13.11-8.4,17.8-16.82,35.62c-2,4.22-4.27,8.33-5.93,12.67-1.16,3.06-2.15,1.2-2.82.14-2.22-3.54-4.18-7.24-6.32-10.84s-.79-6.35,1.74-8.73a23.63,23.63,0,0,0,6.34-10.71c3.23-6.28,2.46-12.78,1-19.31-1.2-11.12-7.84-18.15-17.48-22.7-2.26-1.06-4.68-2.25-7.38-2.1-.5-1.23-1.6-1-2.54-1q-20.61,0-41.23,0c-.94,0-2-.24-2.54,1l-1.8,1.8c-1.43.65-1,2-1,3q0,40.53,0,81.05c0,1-.52,2.34.86,3a3.82,3.82,0,0,0,.18,1.23,10.9,10.9,0,0,0,3.19,1.92,9.52,9.52,0,0,0,2.69.64l1.37.1c2.35.14,4.7.12,7.05.08a23.09,23.09,0,0,0,3.88-.75l.07,0c.27-.07.55-.15.82-.24,2.91.3,4.18-1,3.89-3.89,2.14-4.87.7-10,.9-15,.29-7.22,3.56-9.3,10.39-6.41,1.44.61,2.29,1.82,3.63,2.42,3.49,6.9,6.77,13.92,11.88,19.85a7.71,7.71,0,0,0,1.94,2.19c1.71.67,3.33,1.69,5.11,1.64,3.48-.09,7,0,10.47.14,4.28.14,8.55.27,12.82,0a52.72,52.72,0,0,0,7.57-.94,12,12,0,0,0,3.4-2.06c3.21-1.67,3.44-5.55,5.84-7.82,3.55-1.68,7.35-1.3,11.05-1.11,8,.39,16-1.27,23.9,1.1l1.86,1.87a20.77,20.77,0,0,0,1.9,4.85c2.7,2.61,6,3.67,9.79,4a39.37,39.37,0,0,0,4,.15l22.83-.08q33.49-.11,67,0,11,0,22,.11a23.47,23.47,0,0,0,2.83-.13,12.77,12.77,0,0,0,5.18-1.55l.28-.17a10.43,10.43,0,0,0,3-2.93,25.53,25.53,0,0,0,.13-5.36c.29-.7,1.12-1.26,1.52-.84,6.44,6.82,15,9.34,23.62,11.85h17a3.64,3.64,0,0,1,1.62-.62h0c4-1.5,8.09-2.86,12-4.66,8-3.74,12.8-10.36,15.38-18.67v-12C694,265.49,683.29,261.32,671.68,260.47Zm-275.37,4c-4.35,1.6-8.82,1-13.21.83-2.72-.12-4.71-1.67-4.47-5.2.32-4.8.09-9.63.09-14.45a7.37,7.37,0,0,1,6.07-2.2c4.65.27,9.36-.36,13.89,1.21,1.51,2.3,4.15,3.78,4.9,6.62C405.16,257.25,402.23,262.36,396.31,264.52Zm65.77,13c1.62-3.62,3.08-7.32,4.56-11,.51-1.29,1.58-2.71,2.55-2.65s2,1.42,2.52,2.77c1.17,3.12,2.61,6.15,3.74,9.28,1.37,3.77.05,5.44-4.73,5.55-2-.35-4.44-1.23-7.1-1.17C462.44,280.34,461.27,279.37,462.08,277.54Zm196.54,15.93c-4.71.09-8.19-2-11.12-5.43-2.61-3.07-5.72-4.77-9.79-2.62-4.44-2-8.69-.11-12.71,1.15-3.15,1-.68,4.56-1.54,6.8h0a33.94,33.94,0,0,0-7.18-1c-5.6-.5-11,1.24-16.59,1-.48-1.19-1.6-1-2.47-.86-4.23.47-5.4-2.07-5.58-5.55-.07-1.47.09-3,.14-4.43,1.44-.61.61-1.91.87-2.88,1.91-2.29,4.52-2,7.14-2.17,7.28-.4,14.64,1.17,21.86-.83.09,0,.18-.12.27-.38a.45.45,0,0,0,0-.16h0c2.66-4.92,2.16-10,1.19-15.11,0,0,0-.06,0-.09a11.34,11.34,0,0,0-.5-2.49l-2.18-1.8c-.59-2-2.21-1-3.3-1-5.6-.12-11.2-.05-16.8-.05-8.08,0-9-.93-8.57-9,1.06-.27.78-1.16.87-1.89,1.76-.18,3.23-1.23,5.15-1.19,8.92.2,17.85.16,26.77.2-1.73,7.61-1.21,14.9,2.94,21.74a4.88,4.88,0,0,0,1.9,2.07c1.82,2,3.17,4.58,6.18,5.16,3.9,3.66,8.76,4.59,13.85,4.84a43.61,43.61,0,0,0,16.14,1.81c2.53,1.52,5.71,1.84,7.83,4.16.41,2.91.53,5.74-1.95,7.93C667.43,293.75,663,293.39,658.62,293.47Zm-37-16.87c.09,0,.18-.12.27-.38a.45.45,0,0,0,0-.16Q621.8,276.33,621.63,276.6Zm1-18.24c.17.83.34,1.66.5,2.49A11.34,11.34,0,0,0,622.61,258.36Zm-1,18.24c.09,0,.18-.12.27-.38a.45.45,0,0,0,0-.16Q621.8,276.33,621.63,276.6Zm1-18.24c.17.83.34,1.66.5,2.49A11.34,11.34,0,0,0,622.61,258.36Zm-1,18.24c.09,0,.18-.12.27-.38a.45.45,0,0,0,0-.16Q621.8,276.33,621.63,276.6Zm1-18.24c.17.83.34,1.66.5,2.49A11.34,11.34,0,0,0,622.61,258.36Z" transform="translate(-52.85 -219.61)"/><path class="cls-2" d="M52.85,224.6c3.91-4.14,8.7-4.17,13.16-.39,13.68,11.6,25.51,25.08,38.5,37.38,1,1,1.71,3.62,4.14,1.89.06-11.45.08-22.91.22-34.36,0-1.51-.91-3.32.84-4.57,1.26-2.47,3.28-3.3,6-3,5.69.68,11.54-1.17,17.16,1a0,0,0,0,1,0,0l0,0a5.9,5.9,0,0,1,1.92,4.66q-.11,34.1-.17,68.19c.24.1.08,1.48.23,1.93-1.32-.44-1.49-1.88-1.54-3.2-.07-19.9,0-39.79,0-59.68,0-3,0-6-1.44-8.71-.36-.36-.7-.75-1.06-1.11-5.47-2.83-11.23-1.41-16.89-1.08-1.52.09-1.9,1.64-2.41,2.84-1.54,3.65-1.18,7.48-1.21,11.28-.07,8.11.17,16.21-.13,24.31-1,3.42-3.12,3.47-5.71,1.82a24.71,24.71,0,0,1-4.06-3.66Q86.83,246.61,73.27,233c-2.35-2.35-4.91-4.46-7.46-6.59-3.21-2.68-6.59-3.74-10.57-1.89A2.47,2.47,0,0,1,52.85,224.6Z" transform="translate(-52.85 -219.61)"/><path class="cls-2" d="M223.24,309.2c1.13,3.07.47,5.21-2.49,5.6-6,.8-12.05,1.71-18-.57-3.07-.15-4.41-2.17-5.15-4.81a18.4,18.4,0,0,0-5.86-5.82h-30c-1.81,1.53-4.09,2.56-5,5-2,5.19-6.46,6.53-11.36,6.74s-10-.06-15,.08c-4.81.13-8-2.16-11.06-5.68a128.61,128.61,0,0,0-14.62-14c-4.7-3.89-8.65-8.67-12.94-13.06-3.49-3.92-8.79-6-11.12-11.12l-2,2c0,11.75.14,23.5.13,35.25,0,2.69-.56,5.25-3.93,5.77l0-.05c-6,2.07-12.13.64-18.19.79-2,.06-2.37-2.74-3.88-3.84.63.29,1.27.55,1.91.78.37.15.73.28,1.1.4h0a30.05,30.05,0,0,0,17.82.28,14.19,14.19,0,0,0,1.44-.62c2.26-2.61,2.16-5.8,2.2-8.91.13-9.76-.16-19.51.15-29.27A3.58,3.58,0,0,1,80,271.11c2.88.71,4.62,2.9,6.56,4.84a16.24,16.24,0,0,0,2.13,1.85l0,0c1.56,1.1,2.75,2.72,4.38,3.81,9.08,9.92,19.78,18.16,28.89,28.1,6.49,7.08,27.57,5.16,33.47-2.47,2-2.53,4.09-4.82,7.53-5.27q13.75-.18,27.48,0c3.9.5,6.15,3.16,8.14,6.16a9.9,9.9,0,0,0,1.32,2.55,5.7,5.7,0,0,0,.93,1,5.25,5.25,0,0,0,3,1.18c3.59,1,7.27.67,10.91.61,6.71-.09,7.65-1.43,5.14-7.83-2.91-7.42-6.7-14.44-10.09-21.64-8.25-17.56-16.35-35.19-24.49-52.81-1.33-2.86-2.62-5.75-5.34-7.64s-5.16-1.89-7.45.65c-6.09,7.29-8.69,16.38-12.6,24.75-6.76,14.42-13.55,28.83-20.09,43.35a16.35,16.35,0,0,1-1.7,3c-.78,1.05-1.61,2.38-3.06,2.07a6.85,6.85,0,0,0,.91-1.67c3.22-7.19,6.93-14.16,10.27-21.3,5.44-11.66,10.75-23.39,16.11-35.09,1.87-4.09,3.65-8.23,5.58-12.29.83-1.74,1.69-3.55,3.61-4.45,2.8-3.43,6.08-2.31,9.38-1,3.55,2,4.73,5.69,6.29,9,5.76,12.23,11.57,24.46,16.94,36.87C210.3,281.52,218,294.81,223.24,309.2Z" transform="translate(-52.85 -219.61)"/><path class="cls-2" d="M351.7,229.46q0,26.07,0,52.15c0,1.07.48,2.39-1,3-.3,8.76-2.26,16.75-9.42,22.78-5,4.25-10.53,7.24-17.13,8-.7.08-1.27.21-1.45,1,.19-3,2.85-2.81,4.68-3.39,8.63-2.76,15.33-7.75,19.2-16.08,2.06-4.45,1.57-9.43,2.69-14.09a33.36,33.36,0,0,0,.95-8.85q-.08-18.59,0-37.17a29.62,29.62,0,0,0-1.07-8.8c-.35-3.16-2.07-4.57-5.3-4.44-2.63.1-5.29-.19-7.9.17-2.44.34-5,.76-5.6,3.89a23.51,23.51,0,0,0-1.17,7.85c.05,15.78,0,31.56.05,47.33-1,9-6.75,13.69-16.41,13.33-8.43-.31-14-5.73-14-14.15,0-4-1.12-7.87-.65-11.86a167.7,167.7,0,0,0,0-42.59c-.26-.49-.47-1-.69-1.51-1.72-2.89-4.61-2.84-7.43-2.93-5.93-.17-11.88.33-17.81-.29-3.06-1-6.22-.69-9.35-.7-12.22,0-24.43,0-36.65,0a25.34,25.34,0,0,0-7.32.9,10.34,10.34,0,0,1-1.55.39c-2,.29-3.48,1.33-3.68,3.4-.41,4.39-1.21,8.84.8,13.08a5.46,5.46,0,0,0,1.65,1.25c3.78,1.68,7.76.86,11.63.92,2.78,0,5.15.66,7,2.82a6.15,6.15,0,0,1,1.44,3.21c.27,17.89.15,35.77.08,53.66,0,10.28,1.81,13.65,14.34,11.41a8,8,0,0,0,1-.25c1.55-.38,3.18-.62,4.12-2.18a31.42,31.42,0,0,0,2.18-7.4,40.18,40.18,0,0,0,.51-7.52c0-1.7-.15-3.41-.34-5.13-1.42-13.28-.62-26.57-.59-39.85,0-2.76.58-4.77,1.76-6.15a2.19,2.19,0,0,1,.21-.23,5.82,5.82,0,0,1,2-1.41l.09,0a12.8,12.8,0,0,1,4.94-.89c1.84,0,3.67,0,5.5,0,5.4.67,6.21,1.47,6.27,6.85.1,10,.06,19.95,0,29.93a32.58,32.58,0,0,0,1,8.87,7,7,0,0,1,.26,1.64,13.52,13.52,0,0,0,.84,5.87,11.71,11.71,0,0,0,.58,1.37,21.81,21.81,0,0,0,3.23,4.75A36,36,0,0,0,300.62,313c1.7.61,4.13.64,4.11,3.43-8.41-2.85-16.5-6.22-22-13.76-2.71-3.62-5.08-7.38-4.84-12.17a1.63,1.63,0,0,1-.19-.87c-1.84-1.17-.92-3-.93-4.49-.08-12.2-.23-24.4,0-36.6.1-4.05-1.46-5.32-5.09-5.11-1.33.06-2.65.16-4,.16-7.47,0-9,1.56-9,9.26,0,9.77-.24,19.56.09,29.33.19,5.38,1.06,10.74,1,16.17-.07,4.27-1.72,8.37-1.1,12.69.19,1.36-1,2-2,2.57-1,1.62-2.59.49-3.86.85-4.57,2-9.35,1.22-13.93.52-3.17-.49-4.31-3.19-4.29-6.68.11-20.23,0-40.46-.09-60.69-1-.28-.78-1.15-.85-1.87-1.7-1.73-3.73-2.14-6.16-2.23-4.65-.19-9.42,1.18-14-.88l-.86-.86c-2.11-5.8-.87-11.79-.68-17.66,0-1.62,2.39-2.88,4.62-2.6.49-1.15,1.57-.86,2.48-.86q25.58,0,51.15,0c.93,0,2-.3,2.53.95,7.12,0,14.24.11,21.36,0,3,0,5.15.69,5.62,4,1.2.49.87,1.58.87,2.49q0,20,0,40.08c0,.93.29,2-1,2.52,1.2,5,.64,10.09,1.06,15.11s8.84,9.46,14.41,8.58c6.65-1.05,11.27-3.93,12.64-10.86q-.09-27.75-.16-55.52c0-1-.23-2,1-2.53.7-4.6,4.89-2.94,7.38-3.59,3.25-.86,6.89-.2,10.36-.21q4.94,0,4.28,4.84C352.22,227.07,351.7,228.4,351.7,229.46Z" transform="translate(-52.85 -219.61)"/><path class="cls-2" d="M392.36,291c.1.17.2.35.29.53-1.34-.6-2.19-1.81-3.63-2.42-6.83-2.89-10.1-.81-10.39,6.41-.2,5,1.24,10.1-.9,15,1-4.87.19-9.8.47-14.69.16-2.7-1-6.54,2.1-7.47,3.59-1.07,7.86-1.43,11.23,1.59a1.07,1.07,0,0,1,.18.19l0,0A4.1,4.1,0,0,1,392.36,291Z" transform="translate(-52.85 -219.61)"/><path class="cls-2" d="M373,314.68a23.09,23.09,0,0,1-3.88.75,28.68,28.68,0,0,1-7.05-.08l-1.37-.1a9.52,9.52,0,0,1-2.69-.64c-.58-.13-1.16-.27-1.74-.43a2.06,2.06,0,0,1-1.45-1.49,3.82,3.82,0,0,1-.18-1.23c-1.38-.65-.86-2-.86-3q0-40.52,0-81.05c0-1.08-.42-2.38,1-3-.7.86-.5,1.88-.5,2.86q0,40.68,0,81.36a5.1,5.1,0,0,0,.42,2.83s0,0,0,.06c3,3.08,6.76,3.7,10.82,3.39C368,314.69,370.49,315.26,373,314.68Z" transform="translate(-52.85 -219.61)"/><path class="cls-2" d="M402.83,222.57c-10.18-1-20.39-.32-30.58-.41-5.24,0-10.51-.62-15.73.43.5-1.22,1.6-1,2.54-1q20.61,0,41.23,0C401.23,221.61,402.33,221.34,402.83,222.57Z" transform="translate(-52.85 -219.61)"/><path class="cls-2" d="M427.69,247.37c1.46,6.53,2.23,13-1,19.31C428.77,260.34,428.53,253.87,427.69,247.37Z" transform="translate(-52.85 -219.61)"/><path class="cls-2" d="M450.5,248.53q3.08-6.56,6.14-13.11v.06A44.57,44.57,0,0,1,450.5,248.53Z" transform="translate(-52.85 -219.61)"/><path class="cls-2" d="M471.5,220.74a10.7,10.7,0,0,1,3.32,1.86c-3.78-2.13-7.56-1.67-11.34,0a11.14,11.14,0,0,1,2.75-1.65A7.38,7.38,0,0,1,471.5,220.74Z" transform="translate(-52.85 -219.61)"/><path class="cls-2" d="M535.56,225a8.81,8.81,0,0,1,.07,1.18q-.09,22.65-.17,45.31c-.76-14.24-.19-28.49-.28-42.73,0-3.08-.5-5.57-3.51-7h-7.06l-.46.17h0a8.82,8.82,0,0,1-2.46.15c-9.14-.16-9.33-.68-9.46,9.77-.23,20-.06,40.09-.08,60.14,0,1.81.32,3.65-.34,5.42q-.07-35.1-.17-70.18v-.55c0-2.8.91-4.49,3.14-5a8,8,0,0,1,3.4-.62,24.81,24.81,0,0,0,6.43-.41,30.54,30.54,0,0,1,7.4.21,8.18,8.18,0,0,1,1.73,1.22A3.31,3.31,0,0,1,535.56,225Z" transform="translate(-52.85 -219.61)"/><path class="cls-2" d="M568,290.12c0,2.28-1.72,2.86-3.82,2.84q-11.94-.09-23.88,0c-2.9,0-4.37-1.09-4.2-4.09.2-3.46-.38-6.94.34-10.38,0,3.31.26,6.63.12,9.94-.12,3,1.08,4.1,4.1,4.05q11.46-.21,22.93,0c3.08.06,4.09-1.14,4-4.11-.16-8.6-.12-17.19-.17-25.79a1.44,1.44,0,0,1-.86-1.49q0-17.56,0-35.14a1.49,1.49,0,0,1,1-1.53,317.2,317.2,0,0,0,0,38.14v.06l-.08-.13a.34.34,0,0,1,0,.1C568.86,271.74,567.84,280.94,568,290.12Z" transform="translate(-52.85 -219.61)"/><path class="cls-2" d="M609.56,221.76c-11.58.79-23.18.1-34.76.37-1.79,0-3.65-.48-5.37.45.49-1.22,1.59-1,2.53-1Q590.76,221.67,609.56,221.76Z" transform="translate(-52.85 -219.61)"/><path class="cls-2" d="M445.84,312.4a12,12,0,0,1-3.4,2.06,14.29,14.29,0,0,1-5.42,1h-2.15c-4.27.26-8.54.13-12.82,0h-8.76c-2.56,0-4.94-.35-6.82-1.79a7.71,7.71,0,0,1-1.94-2.19A19.45,19.45,0,0,0,417.07,315c4.28-.28,8.59-.17,12.88,0C435.43,315.1,440.8,314.84,445.84,312.4Z" transform="translate(-52.85 -219.61)"/><path class="cls-2" d="M481.61,302.89a6.61,6.61,0,0,1,5,1.68c-7.87-2.37-15.94-.71-23.9-1.1-3.7-.19-7.5-.57-11.05,1.11a6.52,6.52,0,0,1,5-1.69Q469.16,303,481.61,302.89Z" transform="translate(-52.85 -219.61)"/><path class="cls-2" d="M627.3,310.74c-.61,3.68-2.82,4.57-8.51,4.65a23.47,23.47,0,0,1-2.83.13q-11-.07-22-.11-33.5,0-67,0l-22.83.08a39.37,39.37,0,0,1-4-.15c-5.7-.17-8.22-1.44-9.79-4a20.77,20.77,0,0,1-1.9-4.85c3.2,7.42,9.3,8.59,16.65,8.55,37-.21,74.08-.1,111.12-.1,3.77,0,6.13-.19,7.71-1.05l.28-.17c1.9-1.22,2.54-3.62,3.18-8.29A25.53,25.53,0,0,1,627.3,310.74Z" transform="translate(-52.85 -219.61)"/><path class="cls-1" d="M132.89,222.55a0,0,0,0,0,0,0,0,0,0,0,1,0,0l0,0Z" transform="translate(-52.85 -219.61)"/><path class="cls-1" d="M223.24,309.2c-5.28-14.39-12.94-27.68-19-41.7-5.37-12.41-11.18-24.64-16.94-36.87-1.56-3.32-2.74-7-6.29-9-3.26-.92-6.43-1-9.38,1-1.92.9-2.78,2.71-3.61,4.45-1.93,4.06-3.71,8.2-5.58,12.29-5.36,11.7-10.67,23.43-16.11,35.09-3.34,7.14-7,14.11-10.27,21.3a6.85,6.85,0,0,1-.91,1.67c-.14.12-.21.07-.25-.07-.15-.45,0-1.83-.23-1.93-.65-1.78-.33-3.62-.33-5.43q0-29.62,0-59.25a18.62,18.62,0,0,0-1.46-8.17h0c-5.89-.94-11.82-.25-17.72-.38a6,6,0,0,0-4.57,2.21l-.15.17,0,0c-1.45,1.46-1.06,3.33-1.06,5.09,0,8.88.06,17.75-.06,26.63,0,2.39.81,4.9-.63,7.18-2.43,1.73-3.09-.89-4.14-1.89-13-12.3-24.82-25.78-38.5-37.38-4.46-3.78-9.25-3.75-13.16.39v85.8a4,4,0,0,1,1.46,1.2c.15.18.3.38.45.58.93,1.28,1.75,2.69,3.61,2.65,5.51-.1,11.05.61,16.55-.38h0c2.71-2.5,3.5-5.53,3.48-9.25,0-10.57-.54-21.15.26-31.71l2-2c3.31,4.11,8.42,6.42,11.12,11.12,4.29,4.39,8.24,9.17,12.94,13.06a128.61,128.61,0,0,1,14.62,14c3.1,3.52,6.25,5.81,11.06,5.68,5-.14,10,.14,15-.08s9.36-1.55,11.36-6.74c.95-2.46,3.23-3.49,5-5,5.36-1.54,10.82-.54,16.23-.58,4.56,0,9.21-.93,13.72.59a18.4,18.4,0,0,1,5.86,5.82c1.7,1.63,2.93,3.75,5.15,4.81,5.92,2.28,12,1.37,18,.57C223.71,314.41,224.37,312.27,223.24,309.2Zm-44.59-27.75a23,23,0,0,0-7.2-1.06c-2.58.13-1.95-2.23-1.42-3.17,2.06-3.68,3.09-7.74,4.73-11.57.41-1,.89-1.95,1.91-2,1.35-.06,1.76,1.08,2.2,2.24,1.29,3.44,2.87,6.77,4.1,10.24C184.44,280.25,183.46,281.5,178.65,281.45Z" transform="translate(-52.85 -219.61)"/><path class="cls-1" d="M351.19,279.78c0,1.62.42,3.31-.47,4.85-.3,8.76-2.26,16.75-9.42,22.78-5,4.25-10.53,7.24-17.13,8-.7.08-1.27.21-1.45,1h-18c-8.41-2.85-16.5-6.22-22-13.76-1.84-4-3.88-7.86-4.84-12.17a1.63,1.63,0,0,1-.19-.87c-1-8.72-.25-17.47-.45-26.21-.11-5-.23-9.94,0-14.89.23-4-1.1-5.92-5.12-5.46l-.25,0h-6c-5.24,0-7.68,1.77-7.59,6.88.24,12.89-.76,25.77.65,38.7a59,59,0,0,1-2.26,24.93c-1,1.62-2.59.49-3.86.85-3.76,1-7.6.53-11.37.38-4.18-.16-6.25-2.8-6.25-7.24,0-18.24,0-36.49-.05-54.73,0-1.75.68-3.65-.64-5.26-1-.28-.78-1.15-.85-1.87-1-2.4-3-2.64-5.3-2.69-4.94-.12-9.9.62-14.81-.42l-.86-.86c-1.06-5.19-.33-10.42-.44-15.64-.06-2.8,2.44-3.47,4.35-4.56l.1-.05-.11.08c5.94-1,11.93-.36,17.9-.41,11.48-.11,23-.07,34.46,0,.74.19,1.48.34,2.23.47.41.08.83.14,1.24.2,6.56.93,13.2.13,19.78.21,3.27,0,5.78.73,7.53,3.5l.05.07-.07-.08v0c1,12.06.22,24.16.41,36.23,0,2.95.5,5.95-.42,8.87,1.2,5,.64,10.09,1.06,15.11s8.84,9.46,14.41,8.58c6.65-1.05,11.27-3.93,12.64-10.86.77-15.4.07-30.81.37-46.22.07-3.94-.63-7.92.46-11.83.7-4.6,4.89-2.94,7.38-3.59,3.25-.86,6.89-.2,10.36-.21q4.94,0,4.28,4.84c1,2.39.43,4.89.44,7.33Q351.27,256.78,351.19,279.78Z" transform="translate(-52.85 -219.61)"/><path class="cls-3" d="M671.68,260.47c-5-.8-10.21-.34-15.1-2.11C661.61,259.08,666.77,258.92,671.68,260.47Z" transform="translate(-52.85 -219.61)"/><path class="cls-3" d="M691.7,235.55c-1.57-2.16-3.86-3.72-5.14-6.12C688.55,231.24,691.16,232.53,691.7,235.55Z" transform="translate(-52.85 -219.61)"/><path class="cls-3" d="M694.71,247.56a4.71,4.71,0,0,1-.56,1.87,2.11,2.11,0,0,1-2,1.08h-.82s0,0,0,0,0,0,0,0,0,0,0,0,0,0,0,0,0,0,0,0,0,0,0,0,0,0,0,0,0,0,0,0,0,0,0,0,0,0,0,0,0,0,0,0a0,0,0,0,1,0,0c-4.91,1.44-10.11.49-15.16,0h-.44a1.12,1.12,0,0,1-.38-.06h0c-.78-.24-1.23-1.08-1.63-1.82C678.85,251.19,691.58,250.58,694.71,247.56Z" transform="translate(-52.85 -219.61)"/><path class="cls-4" d="M74.93,314.44h0c-6,2.07-12.13.64-18.19.79-2,.06-2.37-2.74-3.88-3.84v-1a13.25,13.25,0,0,0,1.46,1.2,11.79,11.79,0,0,0,1.55,1h0C61.76,315.77,68.56,313.93,74.93,314.44Z" transform="translate(-52.85 -219.61)"/><path class="cls-5" d="M597.78,243.49c-1.92,0-3.39,1-5.15,1.19.77-.61,1.58-1.47,2.52-1.46,9.8.06,19.62-.89,29.4.47C615.63,243.65,606.7,243.69,597.78,243.49Z" transform="translate(-52.85 -219.61)"/><path class="cls-5" d="M616.26,292.36a33.94,33.94,0,0,1,7.18,1c-6.9-.42-13.79-.95-20.65.53a3.41,3.41,0,0,1-3-.34,1.29,1.29,0,0,1-.17-.16h0v0h0c-3.22-.84-7.77.47-8.42-4.67a13.83,13.83,0,0,1-.16-4.36,4.88,4.88,0,0,1,.73-1.86c0,1.47-.21,3-.14,4.43.18,3.48,1.35,6,5.58,5.55.87-.1,2-.33,2.47.86C605.23,293.6,610.66,291.86,616.26,292.36Z" transform="translate(-52.85 -219.61)"/><path class="cls-5" d="M591.76,246.57c-.39,8,.49,9,8.57,9,5.6,0,11.2-.07,16.8.05,1.09,0,2.71-1,3.3,1-7.27-1.17-14.58-.32-21.86-.51C591.73,255.88,590,253.51,591.76,246.57Z" transform="translate(-52.85 -219.61)"/><path class="cls-5" d="M621.71,275.6c1.86-2.33,1.42-5.23,1.34-8-.06-2.23.26-4.47.07-6.69,1,5.11,1.47,10.19-1.19,15.11,0,0,0,0,0,0a.45.45,0,0,1,0,.16c-.09.26-.18.38-.27.38-7.22,2-14.58.43-21.86.83-2.62.14-5.23-.12-7.14,2.17,1-2.37,3-2.69,5.28-2.65,6.08.09,12.17.06,18.26,0,1.61,0,3.3.42,4.8-.57a6.18,6.18,0,0,0,.62-.64A1.58,1.58,0,0,0,621.71,275.6Z" transform="translate(-52.85 -219.61)"/><path class="cls-5" d="M629.39,267.5c2.44,1.27,4,3.58,6.18,5.16C632.56,272.08,631.21,269.5,629.39,267.5Z" transform="translate(-52.85 -219.61)"/><path class="cls-5" d="M637.71,285.42c-3.8-1.14-7.42.52-11.05,1s-1.81,4.72-3.2,6.95c.86-2.24-1.61-5.82,1.54-6.8C629,285.31,633.27,283.4,637.71,285.42Z" transform="translate(-52.85 -219.61)"/><path class="cls-5" d="M649.42,277.5c5.38.59,10.75,1.3,16.14,1.81A43.61,43.61,0,0,1,649.42,277.5Z" transform="translate(-52.85 -219.61)"/><path class="cls-5" d="M671.44,291.4c2.48-2.19,2.36-5,1.95-7.93C674.54,286.56,675,289.46,671.44,291.4Z" transform="translate(-52.85 -219.61)"/><path class="cls-6" d="M398.68,244.71c-4.53-1.57-9.24-.94-13.89-1.21a7.37,7.37,0,0,0-6.07,2.2c.53-1,1.21-2.38,2.29-2.36C386.92,243.42,393,241.58,398.68,244.71Z" transform="translate(-52.85 -219.61)"/><path class="cls-7" d="M627.3,310.74c-.61,3.68-2.82,4.57-8.51,4.65H594q-33.5,0-67,0-12.78,0-25.57-.05l-1.23,0c-5.7-.17-8.22-1.44-9.79-4a20.77,20.77,0,0,1-1.9-4.85c2.86.75,2.54,4.32,4.71,5.46a21,21,0,0,0,10,2.56c37-.11,74-.06,110.94-.07,10,0,10,0,13.29-9A25.53,25.53,0,0,1,627.3,310.74Z" transform="translate(-52.85 -219.61)"/><path class="cls-8" d="M524.61,221.77l-.46.17h0a6.73,6.73,0,0,1-1.83.59c-9.45.82-9.55.81-9.61,10.34-.09,13.11,0,26.23,0,39.35v21.91a4.72,4.72,0,0,1-.89,3.29q-.07-35.1-.17-70.18v-.55c0-2.8.91-4.49,3.14-5a7.3,7.3,0,0,1,1.88-.14C519.29,221.7,522,221.71,524.61,221.77Z" transform="translate(-52.85 -219.61)"/><path class="cls-9" d="M354.72,224.39l-.06,87.07v0l-.07,0c-1.38-.65-.86-2-.86-3q0-40.52,0-81.05C353.71,226.34,353.29,225,354.72,224.39Z" transform="translate(-52.85 -219.61)"/><path class="cls-10" d="M568.63,289.08c0,3.12-1,4.75-4.76,4.56-7.64-.4-15.31-.28-23-.13-3.83.07-5.68-1.31-5.27-5.22.34-3.26-.78-6.65.82-9.8,0,3.31.26,6.63.12,9.94-.12,3,1.08,4.1,4.1,4.05q11.46-.21,22.93,0c3.08.06,4.09-1.14,4-4.11-.16-8.6-.12-17.19-.17-25.79v-.09l.08.07h0c1.06,1,1.07,2.28,1.07,3.59Q568.64,277.62,568.63,289.08Z" transform="translate(-52.85 -219.61)"/><path class="cls-11" d="M535.63,226.16q-.09,22.65-.17,45.31c-1.25-1.61-.83-3.5-.83-5.29,0-12-.14-23.92,0-35.87.05-3.36-.51-6.21-3-8.54a4.68,4.68,0,0,1,2,.37,3.31,3.31,0,0,1,1.85,2.84A8.81,8.81,0,0,1,535.63,226.16Z" transform="translate(-52.85 -219.61)"/><path class="cls-12" d="M445.84,312.4a12,12,0,0,1-3.4,2.06,14.29,14.29,0,0,1-5.42,1h-2.15q-6.42,0-12.82,0h-8.76c-2.56,0-4.94-.35-6.82-1.79a7.71,7.71,0,0,1-1.94-2.19c10.38,4.9,21.43,2.41,32.21,2.94C439.93,314.52,442.52,311.76,445.84,312.4Z" transform="translate(-52.85 -219.61)"/><path class="cls-13" d="M402.83,222.57l-46.31,0c.5-1.22,1.6-1,2.54-1q20.61,0,41.23,0C401.23,221.61,402.33,221.34,402.83,222.57Z" transform="translate(-52.85 -219.61)"/><path class="cls-14" d="M620.43,256.56c-8,0-15.92,0-23.88-.06-5.51-.07-7.8-4.94-4.79-9.93-.39,8,.49,9,8.57,9,5.6,0,11.2-.07,16.8.05C618.22,255.6,619.84,254.6,620.43,256.56Z" transform="translate(-52.85 -219.61)"/><path class="cls-15" d="M392.65,291.57c-1.34-.6-2.19-1.81-3.63-2.42-6.83-2.89-10.1-.81-10.39,6.41-.2,5,1.24,10.1-.9,15,0-5.48-.07-11,0-16.44,0-2.59-.48-5.56,3-6.55,4.28-1.21,8.39-.21,10.74,2.38l0,0a1.07,1.07,0,0,1,.18.19l0,0a7.7,7.7,0,0,1,.63.87C392.46,291.21,392.56,291.39,392.65,291.57Z" transform="translate(-52.85 -219.61)"/><path class="cls-13" d="M609.56,221.76c-1.78,1.31-3.84.83-5.79.84-11.44,0-22.89,0-34.34,0,.49-1.22,1.59-1,2.53-1Q590.76,221.67,609.56,221.76Z" transform="translate(-52.85 -219.61)"/><path class="cls-16" d="M567.59,224.42q0,19.07,0,38.14v.06l-.07,0h0a1.44,1.44,0,0,1-.86-1.49q0-17.56,0-35.14A1.49,1.49,0,0,1,567.59,224.42Z" transform="translate(-52.85 -219.61)"/><path class="cls-17" d="M486.63,304.57c-7.87-2.37-15.94-.71-23.9-1.1-3.7-.19-7.5-.57-11.05,1.11.88-2.08,2.7-2.16,4.57-2.16H482C483.92,302.42,485.73,302.51,486.63,304.57Z" transform="translate(-52.85 -219.61)"/><path class="cls-18" d="M624.55,243.69c-8.92,0-17.85,0-26.77-.2-1.92,0-3.39,1-5.15,1.19a3.48,3.48,0,0,1,3.58-2.1c8.73,0,17.47,0,26.2.08C623.13,242.67,623.84,243.33,624.55,243.69Z" transform="translate(-52.85 -219.61)"/><path class="cls-19" d="M621.93,276.05s0,0,0,0a.45.45,0,0,1,0,.16c-.09.26-.18.38-.27.38-7.22,2-14.58.43-21.86.83-2.62.14-5.23-.12-7.14,2.17.27-3,2.42-3.13,4.71-3.12,6.14,0,12.29,0,18.43,0,2,0,4,0,5.81-1l.13.12A.62.62,0,0,1,621.93,276.05Z" transform="translate(-52.85 -219.61)"/><path class="cls-20" d="M623.44,293.36c-1.64,1.92-3.36.08-5,.11-4.59.08-9.18-.31-13.73.8-1.59.39-3.42.54-4.86-.72a1.29,1.29,0,0,1-.17-.16h0v0h0l-.05-.05h.11c5.56.28,11-1.46,16.59-1A33.94,33.94,0,0,1,623.44,293.36Z" transform="translate(-52.85 -219.61)"/><path class="cls-21" d="M694.71,247.56a4.71,4.71,0,0,1-.56,1.87,2.11,2.11,0,0,1-2,1.08h-.82s0,0,0,0,0,0,0,0,0,0,0,0,0,0,0,0,0,0,0,0,0,0,0,0,0,0,0,0,0,0,0,0,0,0,0,0,0,0,0,0,0,0,0,0a0,0,0,0,1,0,0q-7.58.08-15.16,0h-.44a1.12,1.12,0,0,1-.38-.06h0c-.78-.24-1.23-1.08-1.63-1.82C680.6,249.54,687.78,251.15,694.71,247.56Z" transform="translate(-52.85 -219.61)"/><path class="cls-22" d="M398.68,244.71c-4.53-1.57-9.24-.94-13.89-1.21a7.37,7.37,0,0,0-6.07,2.2c.3-.74.38-1.75.92-2.19C382.23,241.45,396.06,242.41,398.68,244.71Z" transform="translate(-52.85 -219.61)"/><path class="cls-23" d="M373.84,314.42c-.27.09-.55.17-.82.24l-.07,0a23.09,23.09,0,0,1-3.88.75,28.68,28.68,0,0,1-7.05-.08,38.5,38.5,0,0,1-4.06-.74c-.58-.13-1.16-.27-1.74-.43a2.06,2.06,0,0,1-1.45-1.49,3.82,3.82,0,0,1-.18-1.23v0l0,0,0,0C360.59,315.38,367.33,314.22,373.84,314.42Z" transform="translate(-52.85 -219.61)"/><path class="cls-24" d="M637.71,285.42c-3.07.36-6.13.79-9.2,1.07-4.36.39-3.17,4.74-5,6.88.86-2.24-1.61-5.82,1.54-6.8C629,285.31,633.27,283.4,637.71,285.42Z" transform="translate(-52.85 -219.61)"/><path class="cls-25" d="M426.69,266.68c1.24-6.39,1-12.85,1-19.31C429.15,253.9,429.92,260.4,426.69,266.68Z" transform="translate(-52.85 -219.61)"/><path class="cls-26" d="M599.7,293.39h-.07c-8.11.17-10.83-2.65-8.6-9.05a18.69,18.69,0,0,1,.73-1.86c0,1.47-.21,3-.14,4.43.18,3.48,1.35,6,5.58,5.55.87-.1,2-.33,2.47.86Z" transform="translate(-52.85 -219.61)"/><path class="cls-27" d="M621.93,276.05s0,0,0,0q-.13.27-.3.54c0-.28,0-.57,0-.85,0-.09,0-.18,0-.27,1.83-5.62.59-11.42,1-17.12.17.83.34,1.66.5,2.49,0,0,0,.06,0,.09C624.09,266.05,624.59,271.13,621.93,276.05Z" transform="translate(-52.85 -219.61)"/><path class="cls-28" d="M456.64,235.42v.06a19,19,0,0,1-6.14,13.05Q453.58,242,456.64,235.42Z" transform="translate(-52.85 -219.61)"/><path class="cls-24" d="M665.56,279.31a43.61,43.61,0,0,1-16.14-1.81A49.42,49.42,0,0,1,665.56,279.31Z" transform="translate(-52.85 -219.61)"/><path class="cls-29" d="M671.68,260.47c-5.12,0-10.35.63-15.1-2.11C661.61,259.08,666.77,258.92,671.68,260.47Z" transform="translate(-52.85 -219.61)"/><path class="cls-30" d="M474.82,222.6c-3.78-1.19-7.56-.41-11.34,0a11.14,11.14,0,0,1,2.75-1.65,7.38,7.38,0,0,1,5.27-.21A10.7,10.7,0,0,1,474.82,222.6Z" transform="translate(-52.85 -219.61)"/><path class="cls-31" d="M635.57,272.66c-3-.58-4.36-3.16-6.18-5.16C632.49,268,634.05,270.3,635.57,272.66Z" transform="translate(-52.85 -219.61)"/><path class="cls-32" d="M691.7,235.55c-2.37-1.48-4.68-3-5.14-6.12C688.55,231.24,691.16,232.53,691.7,235.55Z" transform="translate(-52.85 -219.61)"/><path class="cls-33" d="M671.44,291.4c2.48-2.19,2.36-5,1.95-7.93C674.88,286.64,676.32,289.8,671.44,291.4Z" transform="translate(-52.85 -219.61)"/><path class="cls-34" d="M272.19,243a.12.12,0,0,1,0,.09.52.52,0,0,1-.4.27c-1.33.06-2.65.16-4,.16-7.47,0-9,1.56-9,9.26,0,9.77-.24,19.56.09,29.33.19,5.38,1.06,10.74,1,16.17-.07,4.27-1.72,8.37-1.1,12.69.19,1.36-1,2-2,2.57.35-3.44.74-6.86,1.06-10.28.23-2.5.41-5,.51-7.52a80.08,80.08,0,0,0-.18-9.78c-1-12.36-.46-24.86-.25-37.3a6.73,6.73,0,0,1,1.26-4.05,2.19,2.19,0,0,1,.21-.23,4.83,4.83,0,0,1,2-1.41l.09,0a8.08,8.08,0,0,1,3.27-.42c2.32.14,4.65,0,7,.05C272.08,242.74,272.23,242.89,272.19,243Z" transform="translate(-52.85 -219.61)"/><path class="cls-35" d="M252.9,314.42c-4.57,2-9.35,1.22-13.93.52-3.17-.49-4.31-3.19-4.29-6.68.11-20.23,0-40.46-.09-60.69,1.79,1.57,1.14,3.7,1.15,5.61,0,17.56,0,35.13,0,52.69,0,6.45,2.05,8.44,8.65,8.52C247.25,314.42,250.08,314.41,252.9,314.42Z" transform="translate(-52.85 -219.61)"/><path class="cls-14" d="M134.83,227.21q-.11,34.1-.17,68.19c-1.32-1.78-.82-3.84-.83-5.79q0-25.39,0-50.78c0-5.45.33-10.91-.93-16.28h0a0,0,0,0,1,0,0l0,0A5.9,5.9,0,0,1,134.83,227.21Z" transform="translate(-52.85 -219.61)"/><path class="cls-36" d="M327.89,283.45q-.09-27.75-.16-55.52c0-1-.23-2,1-2.53q0,26.64,0,53.27C328.73,280.3,329.05,282,327.89,283.45Z" transform="translate(-52.85 -219.61)"/><path class="cls-37" d="M351.71,281.61c0,1.07.48,2.39-1,3q0-29.1,0-58.19c1.48.63,1,2,1,3Q351.75,255.53,351.71,281.61Z" transform="translate(-52.85 -219.61)"/><path class="cls-38" d="M272.87,221.56a3.87,3.87,0,0,1-.37.24,2.32,2.32,0,0,1-1,.31,2.86,2.86,0,0,1-1.77-.47l-53.05-.08v0l0-.06c.49-1.15,1.57-.86,2.48-.86q25.58,0,51.15,0C271.27,220.61,272.38,220.31,272.87,221.56Z" transform="translate(-52.85 -219.61)"/><path class="cls-7" d="M277.72,289.59c-1.84-1.17-.92-3-.93-4.49-.08-12.2-.23-24.4,0-36.6.1-4.05-1.46-5.32-5.09-5.11v-.8c4.53-.65,6.16,1.22,6.08,5.84C277.59,262.15,277.73,275.87,277.72,289.59Z" transform="translate(-52.85 -219.61)"/><path class="cls-39" d="M78.82,308.73c0,2.69-.56,5.25-3.93,5.77l0-.05h0c3.88-5.5,2.7-11.8,2.95-17.91.32-7.68-1-15.42.81-23C78.74,285.23,78.83,297,78.82,308.73Z" transform="translate(-52.85 -219.61)"/><path class="cls-40" d="M300.73,268.1c0,.93.29,2-1,2.52q0-22.55,0-45.1v0h0l0,0c1.2.49.87,1.58.87,2.49Q300.75,248.06,300.73,268.1Z" transform="translate(-52.85 -219.61)"/><path class="cls-41" d="M109.81,258.35c0,1.77.49,3.71-1.16,5.13.06-11.45.08-22.91.22-34.36,0-1.51-.91-3.32.84-4.57.3-.32.6-.38.88-.18a.89.89,0,0,1,.25.23c-1.36,2.3-1,4.84-1,7.31C109.82,240.72,109.85,249.53,109.81,258.35Z" transform="translate(-52.85 -219.61)"/><path class="cls-42" d="M299.86,225.58l-.07-.06c-2.83-2.63-6.22-2.92-10-3-6.11-.17-12.29,1-18.35-.39-.59-.13-1.18-.28-1.77-.47l1.54,0,1.61,0c7.12,0,14.24.11,21.36,0,3,0,5.15.69,5.62,4A.09.09,0,0,1,299.86,225.58Z" transform="translate(-52.85 -219.61)"/><path class="cls-43" d="M191.77,303.6h-30c1.09-1.36,2.64-1.16,4.1-1.16q10.88,0,21.75,0C189.14,302.43,190.68,302.23,191.77,303.6Z" transform="translate(-52.85 -219.61)"/><path class="cls-44" d="M132.91,222.55h0c-4.65,0-9.31.15-14,0a14.3,14.3,0,0,0-8.08,2l-.44,0-.69,0c1.26-2.47,3.28-3.3,6-3,5.69.68,11.54-1.17,17.16,1Z" transform="translate(-52.85 -219.61)"/><path class="cls-38" d="M216.78,221.48l-.11.08c-3.09,2.11-4.24,5-3.94,8.78s0,7.59,0,11.39c-2.11-5.8-.87-11.79-.68-17.66,0-1.62,2.39-2.88,4.62-2.6Z" transform="translate(-52.85 -219.61)"/><path class="cls-45" d="M233.74,245.7c-1.7-1.73-3.73-2.14-6.16-2.23-4.65-.19-9.42,1.18-14-.88,5.14,0,10.28,0,15.42,0C231.34,242.55,233.47,242.72,233.74,245.7Z" transform="translate(-52.85 -219.61)"/><path class="cls-46" d="M91.83,282.65c-3.49-3.92-8.79-6-11.12-11.12,1.82,1.6,4,2.92,5.88,4.42a20.92,20.92,0,0,1,2.13,1.85l0,0A12.18,12.18,0,0,1,91.83,282.65Z" transform="translate(-52.85 -219.61)"/><path class="cls-47" d="M282.75,302.63c-2.71-3.62-5.08-7.38-4.84-12.17.85,1.57,1.66,3.16,2.37,4.78.21.45.4.91.58,1.37A36.3,36.3,0,0,1,282.75,302.63Z" transform="translate(-52.85 -219.61)"/><path class="cls-48" d="M181,221.62a29.12,29.12,0,0,0-9.38,1C174.42,219.17,177.7,220.29,181,221.62Z" transform="translate(-52.85 -219.61)"/><path class="cls-49" d="M202.78,314.23c-3.07-.15-4.41-2.17-5.15-4.81a5.74,5.74,0,0,1,2.34,1.29,7.74,7.74,0,0,1,.93,1C201.58,312.48,202.16,313.38,202.78,314.23Z" transform="translate(-52.85 -219.61)"/></svg>