<svg id="Layer_1" data-name="Layer 1" xmlns="http://www.w3.org/2000/svg" viewBox="0 0 712.69 96.79"><defs><style>.cls-1{fill:#fefefe;}.cls-2{fill:#2d3390;}.cls-3{fill:#313576;}.cls-4{fill:#313575;}.cls-5{fill:#333672;}.cls-6{fill:#313675;}.cls-7{fill:#333572;}</style></defs><path class="cls-1" d="M120.5,324.7c.54,13.94-3.93,24.9-15.62,32.76-6.4,4.31-13.65,5-21,5-14-.1-13.64-.54-13.46,13.48,0,1.82.08,3.66,0,5.48-.16,3.06-1.9,4.86-4.89,5-5,.18-10,0-15,.08-2.4,0-3.64-1.62-5.1-3,5.77,1.85,11.71,1.69,17.67,1.57,3.9-.08,5.78-2,5.87-5.84.07-3.16-.06-6.31.09-9.46.3-6.16,2.45-8.35,8.59-8.58,5.3-.2,10.61.05,15.91-.9,12.36-2.22,23.23-12.63,25-25.27,1.69-11.94.08-23.22-9.41-32.09A30.93,30.93,0,0,0,88,294.05c-11.31-.2-22.62.07-33.93-.13-3.11-.06-5.63,2-8.67,1.67,2.43-2.52,5.35-3.16,8.85-3.1,11.32.21,22.64-.05,34,.11C105.38,292.85,119.83,307.17,120.5,324.7Z" transform="translate(-45.4 -291.6)"/><path class="cls-1" d="M191.87,368.77c.21,5.21,3.19,11.21-2.37,15.66a16.77,16.77,0,0,1-8.73,2c-13.24,0-26.49-.28-39.72.1-6.13.18-8.22-1.47-7.53-8.07q-.08-40.56-.18-81.11c0-3.3,1.61-4.8,4.87-4.77q7.22.06,14.45,0c3.32,0,4.82,1.64,4.72,4.87,1.89,1.37.91,3.36.92,5,.12,20,.14,40,.18,60,8.26,3.41,16.93,2.25,25.37,1.59C188.37,363.65,191.7,364.53,191.87,368.77Z" transform="translate(-45.4 -291.6)"/><path class="cls-1" d="M289.4,378c2.44,5.31.61,8.23-5.13,8.41-2.83.09-5.67-.09-8.49,0-5.46.25-9.6-.7-12.13-6.73-1.51-3.63-5.27-5.6-10.57-4.58a55,55,0,0,1-18.9.06c-5.19-.83-8.31,1.19-10.58,4.78-2.95,4.69-6.61,7-12.19,6.5-3.47-.29-7,.05-10.48-.08-4-.16-5.55-2.56-3.87-6.26q8.43-18.56,17-37c7-15.12,14.17-30.17,21.11-45.32a13.81,13.81,0,0,1,5.1-6.17,260.22,260.22,0,0,0-12.23,24.22c-9.17,19.91-18.31,39.83-27.72,59.63-.43.9-.78,1.84-1.13,2.77-2,5.29-1.08,6.67,4.44,6.85,2.5.08,5-.13,7.49.05a11.57,11.57,0,0,0,11.05-5.42c3.2-4.67,7.34-6.56,13.25-5.81a65.15,65.15,0,0,0,17.42-.12c5.56-.81,9.54,1.24,12.12,5.84,2.35,4.17,5.69,5.75,10.28,5.5,3-.16,6,.17,9-.13,3.95-.39,5.35-2.39,4-6.14a106.82,106.82,0,0,0-5-11.42c-10.94-22-21-44.44-31-66.9-1.41-3.17-4.51-5.31-5-8.92,3.3,2.28,5,5.74,6.64,9.2,7,15.13,13.79,30.32,20.73,45.46C279.54,356.86,284.55,367.38,289.4,378Z" transform="translate(-45.4 -291.6)"/><path class="cls-1" d="M364.39,298.55c2.42,4.65.37,9.28-.66,13.66-.53,2.28-3.93,2.28-6.48,2.41-5,.27-10.27-1.46-14.85,2,0,19.31,0,38.63-.18,57.94,0,1.66,1,3.65-.92,5,.93,5.48-2.19,7-6.88,6.88-3.49-.07-7,0-10.47,0-5.69-.07-6.67-1-6.67-6.55q0-28.11,0-56.22c0-7.35-1.68-9.05-8.84-9.07h-3.49c-10.32,0-14.1-5.61-10.79-16,.12-4.61,2.72-6,7-6,19,.1,38,.14,56.93,0C362.61,292.47,364.6,294.15,364.39,298.55Z" transform="translate(-45.4 -291.6)"/><path class="cls-1" d="M421.21,380c-.37,6.05-3.29,7.49-9.37,6.84-7.4-.78-14.94-.35-22.42-.43-3.32,0-6.66,0-10,0-3.8,0-6.51-1.23-6.39-5.53.11-4-.78-8,.21-12,.76-3,3.2-4.18,5.85-4.39,4.93-.38,6.25-4.6,5.86-7.54-1.55-11.74-.28-23.45-.68-35.16-.13-4.05-1-6.37-5.66-7.48-5.11-1.22-5.94-6-5.21-10.79a39.07,39.07,0,0,1-.13-4.95c.39-3.76,1.88-6.16,6.4-6.08,11.44.22,22.9.08,34.35.08,4,0,6.08,2,6.18,5.95.1,3.48,0,7,0,10.44,0,3.25-1.59,4.87-5,4.42-5.15,1.19-6.09,4.92-6.05,9.53.12,11.8.19,23.6,0,35.4-.08,4,1.47,5.89,5.22,6.08,4.94.25,7,2.89,6.86,7.62C421.19,374.68,421.37,377.35,421.21,380Z" transform="translate(-45.4 -291.6)"/><path class="cls-1" d="M495.12,367.34c.86,5.11,1.91,10.24.16,15.46-.55,1.67-1.17,2.62-2.94,2.63-1.2,1.82-3,.91-4.55.92-14,.08-28,0-41.94,0-8.93,0-8.93,0-8.46-9q-.09-39.9-.19-79.79c0-3.52,1.5-5.17,5.07-5.1,4.5.09,9,.14,13.49,0,4.11-.14,5.54,1.75,5.51,5.71-.1,17.78-.06,35.57,0,53.36,0,2,.28,4,.34,5.89.22,6.58,4.81,6.94,9.37,6.84,6.07-.13,12.16.82,18.26-.7A4.73,4.73,0,0,1,495.12,367.34Z" transform="translate(-45.4 -291.6)"/><path class="cls-1" d="M567.37,369.54a63.42,63.42,0,0,1,0,11.53c-.44,4-2.46,5.25-5.61,5.28-16.16.12-32.32,0-48.48.08a3.11,3.11,0,0,1-3.15-1.89,10.15,10.15,0,0,1-2-6.26c0-17.61,0-35.22,0-52.83,0-1.07-.49-2.39,1-3.05-.33-6.75-.81-13.49-.94-20.23-.15-8.09,1.43-9.59,9.21-9.59,3.33,0,6.67.14,10,0,4.32-.25,5.85,1.69,5.82,5.9-.12,19.12-.06,38.25,0,57.37,0,6.88,1.79,8.74,8.84,8.57,6.43-.15,12.86.36,19.32-.39C564.33,363.65,567.07,365.19,567.37,369.54Z" transform="translate(-45.4 -291.6)"/><path class="cls-1" d="M620.15,388.39c-5.73-1.87-11.8-2-17.5-4.62-15.33-7-23.9-18.56-26.58-35.1-2.21-13.61-.18-26.22,7.3-37.78,6.54-10.11,16.35-15.51,27.8-18.3.77-.18,1.69.08,2-1-.16,2.6-2.48,2.36-4,2.78-38.71,10.55-39.74,59.08-20.31,78.35a46.91,46.91,0,0,0,26.67,13.33C617.23,386.33,619.65,385.52,620.15,388.39Z" transform="translate(-45.4 -291.6)"/><path class="cls-2" d="M665.6,311.57c-7.2-10.82-17.54-17.1-30.45-19.09-.37-.06-.67-.58-1-.88h-21c-.29,1.07-1.21.81-2,1-11.45,2.79-21.26,8.19-27.8,18.3-7.48,11.56-9.51,24.17-7.3,37.78,2.68,16.54,11.25,28.06,26.58,35.1,5.7,2.63,11.77,2.75,17.5,4.62h7a2.67,2.67,0,0,1,.48-.32h0c2.83-1.76,6.21-.9,9.25-1.46a44.42,44.42,0,0,0,35.29-36.22C674.42,336.65,673.49,323.44,665.6,311.57Zm-41.73,51.87c-13.75,0-22.27-10.26-22.72-25.15-.4-13.15,11.77-23.75,24.18-22.91,10.34.71,23,8.63,21.8,23.59C648.36,355.35,636.5,363.44,623.87,363.44Z" transform="translate(-45.4 -291.6)"/><path class="cls-2" d="M758.09,350.47v14c-2.42,7.64-6.64,13.69-14,17.63-5.18,2.78-10.81,4-16.29,5.76h0a2.6,2.6,0,0,0-1.71.56h-11c-4.56-1.33-9.19-2.43-13.64-4-9.17-3.33-15.85-9.06-18.07-19.12-1.43-6.53.18-8.76,7.09-8.79,2.66,0,5.33.15,8,0a12.3,12.3,0,0,1,10.11,4c5.48,5.69,12,6.06,18.93,3.75,3.09-1,6.37-3,6-6.45-.36-3.32-3.42-5.59-6.87-6.19-5.11-.89-10.29-1.49-15.46-2.06-7.92-.87-16-2.74-21-8.83-12.3-14.92-8.32-36.27,8.45-44.88,3.09-1.58,6.36-2.8,9.54-4.19h22c.33.31.62.81,1,.9,12.31,2.82,20.56,9.89,23.7,22.37,1.11,4.41-.52,6.58-5.08,6.66-3,.05-6.18-.64-8.94.16-4.42,1.28-6.81-.93-9.66-3.52-5.3-4.81-12.4-6.84-19-3.23-2.62,1.44-4.83,3.29-4.85,6.17,0,2.69,2.07,4.83,4.37,6.18,4.16,2.42,8.83,2.84,13.58,3.29C739.32,331.92,752.61,334.85,758.09,350.47Z" transform="translate(-45.4 -291.6)"/><path class="cls-2" d="M120.5,324.7c-.67-17.53-15.12-31.85-32.29-32.1-11.32-.16-22.64.1-34-.11-3.5-.06-6.42.58-8.85,3.1V383.4c1.46,1.41,2.7,3.06,5.1,3,5-.08,10,.1,15-.08,3-.1,4.73-1.9,4.89-5,.09-1.82,0-3.66,0-5.48-.18-14-.57-13.58,13.46-13.48,7.38.05,14.63-.66,21-5C116.57,349.6,121,338.64,120.5,324.7ZM81.74,340.47c-1.16.07-2.32,0-3.49,0-6-.08-7.84-2-7.85-7.91v-5a9.25,9.25,0,0,1,0-1.49c.7-4.22-2.47-10.31,4.82-11.48,10.38-1.65,19.37,2.75,21.08,9.85C98.15,332.1,91.05,339.91,81.74,340.47Z" transform="translate(-45.4 -291.6)"/><path class="cls-2" d="M289.4,378c-4.85-10.6-9.86-21.12-14.72-31.72-6.94-15.14-13.76-30.33-20.73-45.46-1.6-3.46-3.34-6.92-6.64-9.2h-7a13.81,13.81,0,0,0-5.1,6.17c-6.94,15.15-14.09,30.2-21.11,45.32q-8.59,18.48-17,37c-1.68,3.7-.15,6.1,3.87,6.26,3.49.13,7-.21,10.48.08,5.58.47,9.24-1.81,12.19-6.5,2.27-3.59,5.39-5.61,10.58-4.78a55,55,0,0,0,18.9-.06c5.3-1,9.06.95,10.57,4.58,2.53,6,6.67,7,12.13,6.73,2.82-.13,5.66.05,8.49,0C290,386.21,291.84,383.29,289.4,378Zm-45.54-43.73a59.17,59.17,0,0,1,6.43,14.17c.24.75,1.12,1.4.12,2.52-1.64,1.86-11.92,2.21-13.59.31-.61-.69-.29-1.1,0-1.7C238.76,344.47,240.39,339.22,243.86,334.25Z" transform="translate(-45.4 -291.6)"/><path class="cls-2" d="M421.21,380c-.37,6.05-3.29,7.49-9.37,6.84-7.4-.78-14.94-.35-22.42-.43-3.32,0-6.66,0-10,0-3.8,0-6.51-1.23-6.39-5.53.11-4-.78-8,.21-12,.76-3,3.2-4.18,5.85-4.39,4.93-.38,6.25-4.6,5.86-7.54-1.55-11.74-.28-23.45-.68-35.16-.13-4.05-1-6.37-5.66-7.48-5.11-1.22-5.94-6-5.21-10.79a3.25,3.25,0,0,0,.27-.89h0c.07-.5.06-1,.08-1.53.26-6.2,1.91-7.91,8.19-8q15.21-.13,30.42,0c5.35.05,7.31,2.22,7.34,7.68,0,2-.15,4,0,6,.33,3.51-1,5.78-4.49,6.61-5.15,1.19-6.09,4.92-6.05,9.53.12,11.8.19,23.6,0,35.4-.08,4,1.47,5.89,5.22,6.08,4.94.25,7,2.89,6.86,7.62C421.19,374.68,421.37,377.35,421.21,380Z" transform="translate(-45.4 -291.6)"/><path class="cls-2" d="M363.73,312.21c-.53,2.28-3.93,2.28-6.48,2.41-5,.27-10.27-1.46-14.85,2-1.21,1.46-.61,3.19-.62,4.79,0,17.59,0,35.18,0,52.78,0,1.79.43,3.65-.43,5.39.93,5.48-2.19,7-6.88,6.88-3.49-.07-7,0-10.47,0-5.69-.07-6.67-1-6.67-6.55q0-28.11,0-56.22c0-7.35-1.68-9.05-8.84-9.07h-3.49c-10.32,0-14.1-5.61-10.79-16,1.92-4,5-5.57,9.54-5.52,17.26.19,34.53.24,51.79,0,4.58-.08,7.65.94,8.91,5.55C366.81,303.2,364.76,307.83,363.73,312.21Z" transform="translate(-45.4 -291.6)"/><path class="cls-2" d="M567.4,381.07c-.44,4-2.46,5.25-5.61,5.28-16.16.12-32.32,0-48.48.08a3.11,3.11,0,0,1-3.15-1.89,34,34,0,0,1-1.48-11.65c.08-15.2,0-30.41.05-45.62,0-1.62-.39-3.31.43-4.87-.33-6.75-.81-13.49-.94-20.23-.15-8.09,1.43-9.59,9.21-9.59,3.33,0,6.67.14,10,0,4.32-.25,5.85,1.69,5.82,5.9-.12,19.12-.06,38.25,0,57.37,0,6.88,1.79,8.74,8.84,8.57,6.43-.15,12.86.36,19.32-.39,3-.34,5.71,1.2,6,5.55A63.42,63.42,0,0,1,567.4,381.07Z" transform="translate(-45.4 -291.6)"/><path class="cls-2" d="M495.28,382.8c-.55,1.67-1.17,2.62-2.94,2.63-7.74,1-15.51.27-23.27.42-7.29.14-14.58,0-21.87,0-8.62,0-8.87-.26-9.81-8.43q-.09-39.9-.19-79.79c0-3.52,1.5-5.17,5.07-5.1,4.5.09,9,.14,13.49,0,4.11-.14,5.54,1.75,5.51,5.71-.1,17.78-.06,35.57,0,53.36,0,2,.28,4,.34,5.89.22,6.58,4.81,6.94,9.37,6.84,6.07-.13,12.16.82,18.26-.7a4.73,4.73,0,0,1,5.9,3.7C496,372.45,497,377.58,495.28,382.8Z" transform="translate(-45.4 -291.6)"/><path class="cls-2" d="M189.5,384.43c-16.24,3-32.61,1.13-48.91,1.18-6,0-6.09-.69-7.07-7.17q-.08-40.56-.18-81.11c0-3.3,1.61-4.8,4.87-4.77q7.22.06,14.45,0c3.32,0,4.82,1.64,4.72,4.87.86,1.74.43,3.6.43,5.39,0,18.1,0,36.19.06,54.29,0,1.76-.64,3.65.61,5.29,8.26,3.41,16.93,2.25,25.37,1.59,4.52-.35,7.85.53,8,4.77C192.08,374,195.06,380,189.5,384.43Z" transform="translate(-45.4 -291.6)"/><path class="cls-3" d="M364.39,298.55c-2.82-5.45-7.78-5.06-12.86-5-14.74.16-29.48.28-44.21-.06-5.36-.13-9.66,1.07-13.17,5.07.12-4.61,2.72-6,7-6,19,.1,38,.14,56.93,0C362.61,292.47,364.6,294.15,364.39,298.55Z" transform="translate(-45.4 -291.6)"/><path class="cls-4" d="M420.23,309c0,3.25-1.59,4.87-5,4.42,5.5-4.19,5.83-15.44.67-18.71a8.93,8.93,0,0,0-5.22-1.08q-11.7,0-23.4,0c-10.61,0-10.94,0-13.62,9h0c-.09.29-.18.58-.27.89a39.07,39.07,0,0,1-.13-4.95c.39-3.76,1.88-6.16,6.4-6.08,11.44.22,22.9.08,34.35.08,4,0,6.08,2,6.18,5.95C420.32,302,420.27,305.49,420.23,309Z" transform="translate(-45.4 -291.6)"/><path class="cls-3" d="M189.5,384.43a16.77,16.77,0,0,1-8.73,2c-13.24,0-26.49-.28-39.72.1-6.13.18-8.22-1.47-7.53-8.07,1,6.45,5.87,7,10.93,6.92C159.47,385.12,174.51,386.22,189.5,384.43Z" transform="translate(-45.4 -291.6)"/><path class="cls-3" d="M492.34,385.43c-1.2,1.82-3,.91-4.55.92-14,.08-28,0-41.94,0-8.93,0-8.93,0-8.46-9,2.27,7.65,2.7,7.94,11.69,7.95Z" transform="translate(-45.4 -291.6)"/><path class="cls-5" d="M158.3,302.46c.12,20,.14,40,.18,60-1.71-1.19-1.11-3-1.11-4.55q0-30.21,0-60.42C159.27,298.81,158.29,300.8,158.3,302.46Z" transform="translate(-45.4 -291.6)"/><path class="cls-6" d="M341.3,379.54q0-29.19,0-58.37c0-1.58-.61-3.39,1.1-4.59,0,19.31,0,38.63-.18,57.94C342.21,376.18,343.19,378.17,341.3,379.54Z" transform="translate(-45.4 -291.6)"/><path class="cls-7" d="M508.18,378.28c0-17.61,0-35.22,0-52.83,0-1.07-.49-2.39,1-3.05,0,14.61.08,29.23,0,43.84a113,113,0,0,0,1,18.3A10.15,10.15,0,0,1,508.18,378.28Z" transform="translate(-45.4 -291.6)"/></svg>