<svg id="Layer_1" data-name="Layer 1" xmlns="http://www.w3.org/2000/svg" viewBox="0 0 769.42 65.54"><defs><style>.cls-1{fill:#2c328e;}</style></defs><path class="cls-1" d="M332,297.94c.05-15.23,0-30.46,0-45.69,0-11.45,0-11.31-11.39-11.21-4.51.05-5.94,2-5.83,6.22.16,6.25,0,12.52-.1,18.77,0,1.27.86,3.08-.51,3.75-1.74.85-2.54-1.19-3.53-2.16-7.75-7.57-15.4-15.24-23.17-22.78-1.75-1.7-3.59-4.5-6.29-3.39-3.07,1.26-5.55.35-8.3-.39-1.78-.48-3.66-.93-5.44.1-2.57,1.48-5,1-7.78.23-9.17-2.54-12.22-.38-13.31,8.81a39.12,39.12,0,0,1-1,5.48A12,12,0,0,1,235,264.79c-3.19.42-4.86-.49-4.76-4,.12-4.57-.17-9.15.08-13.7.22-3.88-1.45-5.68-5.17-5.89-1.86-.1-3.73-.1-5.58-.28-4.28-.4-6.39,1.35-6.18,5.77.13,2.66,0,5.32,0,9.44-14.86-21.85-39.25-18.32-51.09-7.93-13.18,11.58-14,35.15-1.69,47.48,7,7,15.74,10,25.3,9.83,11.41-.2,20.83-4.84,27.11-16.18.2,2,.34,2.81.36,3.61.3,12,.29,12,12.16,11.26.17,0,.34,0,.51,0,3,0,4.25-1.55,4.2-4.47-.07-4.57,0-9.14-.06-13.71,0-2.3-.07-4.63,2.72-5.26s4.44.8,5.65,3.2c1.66,3.31,3.8,6.41,5.2,9.82,3.48,8.46,9.14,12.09,18.58,10.59,6-.95,6.62-1,3.44-6.5-3.89-6.71-8.08-13.24-12.11-19.86-1.19-2-2.13-3.94.17-5.84,5.32-4.38,7.83-10.36,9.29-16.94,2.61.82,4.59,2.35,3.53,4.82-2,4.6,1,4.13,3.79,4.49,3.59.47,4.79-2.13,6.25-4.7.34,11.36.31,22.47.34,33.57,0,12-1.33,10.57,10.94,10.87,4.52.11,6.15-1.93,6.18-6,0-6.43,0-12.86.07-19.29,0-1.09-.49-2.6.9-3.14s2,1,2.77,1.73q12.39,12,24.73,24.09c2,2,4.3,3.54,7.22,2.4S332,300.2,332,297.94ZM213.88,269.1a18,18,0,0,0,0,3v1c0,7.39,0,7.56-7.51,7.34a9.92,9.92,0,0,0-9,4.22c-4.76,6.09-10.4,7.56-17,5.25-7.05-2.47-10.9-7.67-11.21-15.14-.5-12,4.16-18.62,14.43-20,4.52-.61,8.94.31,11.9,4a14,14,0,0,0,13.42,5.39C213.25,263.65,214.62,265,213.88,269.1Z" transform="translate(-8.46 -239.99)"/><path class="cls-1" d="M504.12,245.07c-.14-2.63-1.36-4.06-4.14-4-1.69.06-3.39,0-5.08,0-7.38,0-7.68.53-7.42,8.24.23,7,0,14,0,21l-2,.6c-5.25-5.5-10.43-11.06-15.78-16.47-3.8-3.84-7.76-7.55-11.78-11.16-1.76-1.58-3.86-3-6.44-1.82s-2,3.65-2,5.78c0,8.79,0,17.59,0,26.38v17.93a5.2,5.2,0,0,1-2.44-2.71q-9.71-20.81-19.38-41.63c-1.4-3-2.2-6.64-6.59-6.68-4.65-.05-5.52,3.74-7,6.91l-17.51,37.76c-4-13.28-7.51-16.14-20.67-18-3.49-.5-7.14-.22-10.45-1.81-2-1-3.88-2.09-3.94-4.75-.07-2.88,1.85-4.32,4.08-5.2,4.79-1.9,8.87-.32,12.51,3,2,1.88,11.83,3,14,1.72,1.51-.92,1.6-2.32,1.29-4a16.75,16.75,0,0,0-7.71-11.43c-8.25-5.29-17.13-5.85-26.25-2.76-10.55,3.57-15.78,13.25-13.21,24,1.87,7.82,9.66,13.09,20.4,13.6a32,32,0,0,1,9.43,1.57c1.88.66,3.42,1.94,3.49,3.93s-1.3,3.41-3.13,4.22c-4.52,2-9.31,2.25-12.9-1.11-3.95-3.69-8.14-4.14-13-3.7-5.18.47-6.13,1.67-4.56,6.73,2.3,7.42,10.45,13,20.1,13.81,8.13.68,15.8-.61,22.6-5.57,1.92,5.6,14.09,7.14,17.25,2.11,3-4.75,6.73-5.42,11.52-5.17,3.72.19,7.45,0,11.18,0,2.93,0,5.17.87,6.42,3.86s3.75,4,7,3.9c5.93-.16,11.87-.22,17.79,0,4.75.18,6.81-1.58,6.63-6.48-.23-6.25.05-12.51.07-18.77,0-1.23,0-2.67,1.14-3.15,1.3-.58,2,.91,2.82,1.7q11.79,11.54,23.52,23.15c1.45,1.43,2.87,2.84,4.91,3.44,3.08.91,5.17.05,5.21-3.35C504.32,282.24,505.12,263.65,504.12,245.07Zm-83.24,37c-1.8-.87-4.73,1.12-5.27-2.33-.24-1.53,4.38-10.34,5.27-10.43,1.16-.13,5.49,7.72,5.35,10.17C426,283.46,422.68,281.12,420.88,282Z" transform="translate(-8.46 -239.99)"/><path class="cls-1" d="M777.81,252.27c0-11.8-.94-12.57-12.77-11.17-2.71.32-3.89,1.52-3.84,4.24.09,4.56,0,9.13,0,13.7,0,2.39-.41,4.54-3.32,4.75-3.71.28-7.43.45-11.15.47-3.21,0-5-1.49-4.86-5,.16-4.56.07-9.13.08-13.69,0-2.28-.82-3.82-3.29-4.38-10.64-2.4-13.75,0-13.81,10.6,0,.84,0,1.68,0,3.48-14.47-17.13-35.62-20.1-50.14-7.72-13,11.1-14.94,34.16-3.89,46.75,7.37,8.38,17.17,11.21,27.77,11.22,11.18,0,19.69-5.54,25.95-15.63,1.35,15.14,1.34,15.06,12.93,14.37,3.25-.19,4.51-1.56,4.45-4.72-.1-5.24,0-10.49,0-15.73,0-1.72,0-3.61,2-4.23a23.09,23.09,0,0,1,15,.37c3.88,1.44,2,5.91,2.32,9.1a43.51,43.51,0,0,1,0,4.57c0,11.47-1,10.44,10.75,10.67,4.43.09,6-1.44,5.91-5.86C777.69,283.05,777.81,267.66,777.81,252.27Zm-52.64,19.6c0,.34,0,.68,0,1,0,7.92,0,8.05-7.95,7.68a8.52,8.52,0,0,0-8.1,3.9c-4.15,5.7-10,7.6-16,5.87-7.38-2.13-11.35-6.62-12.2-13.8a30.86,30.86,0,0,1-.07-8.09c.85-5.81,3.76-10.15,9.29-12.23,5.84-2.2,11.74-2.26,16.63,2.23,4.6,4.23,9.5,7.09,16,5.77,1.88-.39,2.45.36,2.41,2.07S725.17,270,725.17,271.87Z" transform="translate(-8.46 -239.99)"/><path class="cls-1" d="M122.42,257.88c.2-2-.06-4.06,0-6.08.21-3.91.33-7.61-5.15-7.9-1.3-.07-1.84-1.35-2-2.62-9.39-.48-9.58-.29-9.27,8.86.07,2.19-.09,4.41.15,6.59.55,5-1,7.15-6.61,7.34-12.77.43-12.72.79-12.77-11.65s1.83-11.2-12-11.35c-3.18,0-4.74,1.17-4.89,4.34-.13,2.9-.39,5.78-.63,9.27-11.44-16.84-34.51-18.81-48.89-7.59C6.57,257.93,4.29,280.9,16,294.32c7.19,8.25,16.68,11.56,27.64,11s19.58-4.94,25.89-14.26a55.58,55.58,0,0,1,.48,8.43c0,2.35.4,4.91,3.36,4.57,4.46-.51,9.56,2.41,13.25-2.09.6-.73.22-2.29.23-3.47,0-4.57.21-9.15-.06-13.7s1.86-5.92,6-6c13.22-.37,13.13-.45,13.24,12.78S103.68,304.75,119.4,304C125.8,289,121,273.22,122.42,257.88Zm-52,11.59a19.41,19.41,0,0,0,0,2.53v1c0,7.84,0,8-8.08,7.57-3.62-.2-6,.85-8.1,3.8-4.08,5.72-10.16,7.71-16.4,5.85-7.15-2.12-11.81-7.55-12.09-14.5-.14-3.5-.32-7,.9-10.49,4.06-11.58,18.22-14.63,26.32-5.41a13,13,0,0,0,12.32,4.35C70.26,263.4,71,265.48,70.42,269.47Z" transform="translate(-8.46 -239.99)"/><path class="cls-1" d="M584.1,272.51c2.82-8.27,5.61-16.55,8.47-24.8.93-2.7,1.71-5.63,5.53-5.59,3.58,0,4.31,2.83,5.22,5.31,3.12,8.45,6.13,16.93,9.53,26.38,3-9.82,5.74-18.53,8.39-27.25,1.13-3.72,3.44-5.51,7.43-5.48q16,.15,32,0c3.15,0,5.7.77,5.47,4.28s2.55,8.65-3.71,9.92c-2.8.56-3.61,2.34-3.63,4.67-.08,8.63,0,17.25,0,25.88,0,2.71,1.26,3.66,3.91,4.18,6.84,1.33,3.57,7,4,10.8.44,4-3.2,4-5.74,3.74-6.77-.67-13.53-.34-20.29-.32-2.78,0-5.91.31-5.84-3.67.07-3.78-2-9,3.46-10.39,4.16-1,4.56-3.4,4.53-6.54-.08-7.6-.32-15.21-.38-22.81,0-2.58-.48-4.81-3.35-5.46-3.45-.79-3.14,2.33-3.82,4.1C630.06,273,625,286.52,620,300.12c-1.13,3.09-2.77,4.82-6.13,5-3.53.17-5.09-1.86-6.23-4.79-3-7.64-6.08-15.22-9.59-23.95-3.26,8.31-6,15.49-8.89,22.62-1.27,3.12-2.5,6.27-7,6.15s-5.43-3.38-6.61-6.53Q566.28,273.83,557,249c-2.57-6.86-1.72-8.05,5.5-7.91,1.7,0,3.39.17,5.08.12,4.19-.13,6.48,1.87,7.61,5.88,2.42,8.5,5.09,16.93,7.66,25.39Z" transform="translate(-8.46 -239.99)"/><path class="cls-1" d="M536,241.57c-8-.82-15.88-.27-23.82-.39-3.9-.06-5.43,1.34-5.33,5.32.21,8.61.06,17.23.06,25.85,0,8.44.17,16.89-.06,25.34-.13,4.84,1.26,7.11,6.62,6.65a97.15,97.15,0,0,1,14.16.3c14.85.88,26.25-6,32-19.17C566,270.84,559.61,244,536,241.57Zm9.5,35.52c-1.63,8.64-9,13.88-17.81,12.73-2.92-.38-4.74-1.66-4.48-4.9.34-4-.79-8.07,0-11.7,0-4.47.12-8.53,0-12.57-.12-3.29,1.5-4.46,4.52-4.75C540.2,254.71,547.94,263.88,545.46,277.09Z" transform="translate(-8.46 -239.99)"/><path class="cls-1" d="M151.52,290.17c-3.78-.83-4.57-2.81-4.5-6,.17-7.94.32-15.88.4-23.82,0-2.89.88-4.53,4.14-5.21,4.82-1,3-5.28,3.29-8.4.21-2.56-.59-5.53-3.37-5.32-9.33.71-19-2.9-28,2.07-.4.22-.58.23-.73.08l-.5,1a7,7,0,0,1,1.9,5.41c0,1.47-.07,2.95-.09,4.42,6.23.78,7.16,4.92,6.74,10.58s.15,11.13.19,16.7c0,7,0,7.3-6.89,9.1,0,1.42.09,2.83.14,4.24a9.22,9.22,0,0,1-2.65,6.59V303c2.08-.2,4.1,1.23,6.18,1.22,7.28-.07,14.57,0,21.86,0,2.53,0,5.76.39,5.35-3.45S157.89,291.58,151.52,290.17Z" transform="translate(-8.46 -239.99)"/></svg>