<?xml version="1.0" standalone="no"?>
<!DOCTYPE svg PUBLIC "-//W3C//DTD SVG 20010904//EN"
 "http://www.w3.org/TR/2001/REC-SVG-20010904/DTD/svg10.dtd">
<svg version="1.0" xmlns="http://www.w3.org/2000/svg"
 width="974.000000pt" height="370.000000pt" viewBox="0 0 974.000000 370.000000"
 preserveAspectRatio="xMidYMid meet">
<metadata>
Created by potrace 1.16, written by Peter Selinger 2001-2019
</metadata>
<g transform="translate(0.000000,370.000000) scale(0.100000,-0.100000)"
fill="#0b109f" stroke="none">
<path d="M2440 3590 c-155 -67 -192 -88 -233 -128 -92 -90 -200 -263 -276
-443 -31 -72 -45 -124 -56 -205 -9 -60 -23 -131 -31 -159 -12 -38 -18 -124
-24 -360 -5 -170 -14 -326 -19 -345 -6 -19 -11 -55 -10 -80 l1 -45 13 40 12
40 6 -45 c3 -25 8 -94 11 -155 3 -60 10 -126 17 -145 22 -62 170 -272 243
-345 89 -89 147 -129 250 -173 126 -53 194 -64 330 -53 205 17 334 64 516 186
153 103 168 122 241 292 71 169 139 358 139 390 0 12 -5 34 -12 48 -11 24 -9
29 10 43 18 15 25 44 53 222 46 304 41 498 -22 829 -48 249 -154 416 -341 539
-160 104 -269 131 -533 132 l-100 0 -185 -80z m424 -456 c14 -5 14 -8 0 -29
-14 -21 -13 -27 7 -67 33 -64 67 -197 79 -312 19 -168 28 -176 30 -26 2 157
14 146 28 -26 7 -91 13 -116 31 -141 l23 -31 -21 -65 c-25 -73 -21 -104 15
-138 13 -12 24 -31 24 -41 0 -28 -37 -22 -71 12 l-30 29 -25 -57 c-14 -31 -45
-129 -70 -217 -47 -171 -94 -279 -134 -307 -43 -30 -72 -31 -110 -6 -62 41
-70 73 -81 310 -6 131 -16 231 -25 261 -13 42 -13 51 1 76 8 16 31 109 50 208
41 204 72 307 121 404 19 38 34 71 34 75 0 3 -11 3 -25 0 -36 -9 -31 10 14 55
32 32 45 39 79 39 22 0 47 -3 56 -6z"/>
<path d="M4510 3621 c-216 -34 -497 -99 -551 -127 -32 -16 -53 -52 -63 -104
-11 -63 -46 -709 -47 -869 0 -86 -5 -199 -11 -251 -5 -52 -13 -198 -17 -325
-4 -126 -13 -297 -20 -380 -7 -82 -11 -242 -9 -355 l3 -204 40 -9 c22 -5 177
-7 345 -4 301 4 307 5 421 35 252 65 372 132 570 316 119 111 140 136 183 215
26 49 66 111 88 137 53 65 98 156 142 289 73 220 102 438 93 690 -8 195 -23
277 -65 341 -17 27 -47 87 -66 133 -78 185 -197 336 -310 391 -33 17 -115 44
-181 61 -104 27 -141 32 -275 34 -113 3 -186 -1 -270 -14z m341 -718 c14 -17
36 -59 48 -94 23 -72 61 -241 61 -279 0 -14 -18 -77 -39 -140 -22 -63 -51
-158 -66 -210 -46 -169 -104 -263 -220 -357 -91 -74 -138 -88 -170 -53 -16 17
-17 29 -10 92 7 62 10 177 6 267 -1 13 10 60 24 104 29 92 35 192 15 277 -10
47 -10 68 4 135 8 44 18 105 21 135 13 118 14 120 52 137 47 19 146 30 202 22
32 -5 52 -15 72 -36z"/>
<path d="M6800 3610 c-233 -29 -260 -42 -260 -125 0 -30 -8 -52 -29 -81 -83
-112 -232 -477 -266 -649 -8 -39 -35 -129 -60 -200 -26 -72 -67 -190 -92 -264
-30 -88 -55 -144 -75 -167 -34 -39 -71 -131 -133 -329 -35 -112 -46 -166 -54
-265 -7 -88 -21 -162 -46 -250 -43 -151 -44 -217 -5 -237 19 -9 108 -13 347
-13 l322 0 10 38 c6 20 15 60 22 87 19 81 69 176 118 225 81 80 113 90 436
127 80 9 87 -4 96 -195 12 -226 24 -278 68 -302 23 -12 531 -13 605 -1 70 12
89 37 81 110 -15 132 -81 513 -150 861 -41 206 -88 456 -104 555 -70 418 -175
818 -243 920 -16 24 -65 74 -108 110 l-78 65 -128 -1 c-71 -1 -194 -9 -274
-19z m140 -1048 c5 -20 19 -81 31 -136 59 -288 42 -346 -98 -333 -36 4 -76 13
-88 21 l-22 15 75 240 c42 132 80 238 84 235 4 -3 12 -21 18 -42z m554 -898
c11 -4 16 -19 16 -45 0 -35 3 -39 24 -39 28 0 32 -15 66 -225 32 -192 31 -194
-44 -85 -44 64 -76 100 -102 115 -35 19 -39 26 -42 64 -2 24 3 57 12 75 8 18
14 51 13 73 -1 38 15 73 33 73 5 0 15 -3 24 -6z"/>
<path d="M8762 3595 c-200 -61 -360 -176 -459 -331 -68 -106 -134 -267 -145
-353 -21 -158 13 -415 71 -547 38 -86 158 -190 391 -341 139 -90 209 -127 258
-138 31 -6 64 -40 92 -93 10 -21 8 -32 -19 -85 -51 -106 -54 -107 -184 -107
-142 1 -172 8 -236 58 -77 61 -174 104 -237 106 -70 1 -102 -23 -131 -100 -13
-32 -46 -104 -75 -159 -43 -84 -51 -108 -52 -157 -1 -73 19 -101 110 -150 80
-44 276 -118 390 -148 272 -71 603 -44 815 66 218 114 362 375 363 659 0 128
-17 204 -70 311 -72 147 -163 234 -451 435 -257 179 -322 251 -323 360 0 87
95 239 151 239 10 0 33 -13 51 -29 l32 -28 8 -149 c4 -82 12 -159 17 -171 14
-30 72 -36 317 -31 175 3 204 5 229 22 59 37 65 52 65 164 1 403 -104 603
-360 693 -59 20 -87 23 -300 26 -227 3 -238 2 -318 -22z"/>
<path d="M856 3595 c-131 -19 -234 -53 -388 -132 -177 -89 -190 -105 -262
-323 -82 -251 -92 -311 -79 -484 10 -123 15 -150 42 -210 62 -137 109 -180
471 -426 107 -73 213 -146 234 -163 96 -76 106 -238 20 -306 -84 -66 -168 -50
-463 89 -85 40 -171 75 -191 77 -37 5 -38 5 -89 -73 -106 -161 -165 -309 -148
-376 17 -63 350 -212 568 -252 114 -22 282 -34 344 -24 27 4 86 12 130 17 119
16 276 72 342 122 72 56 164 173 207 262 19 40 56 144 81 232 55 187 55 226 3
383 -54 163 -127 263 -271 370 -110 82 -274 187 -333 214 -48 21 -73 49 -133
153 -34 58 -41 79 -41 123 0 91 40 152 100 152 46 0 51 -11 34 -65 -20 -65
-11 -153 23 -224 38 -79 46 -81 333 -81 l242 0 30 30 30 30 -4 243 c-5 270
-11 305 -77 442 -58 121 -107 161 -238 191 -97 22 -391 27 -517 9z"/>
</g>
</svg>
