<svg id="Layer_1" data-name="Layer 1" xmlns="http://www.w3.org/2000/svg" viewBox="0 0 454.19 455.55"><defs><style>.cls-1{fill:#62666b;}</style></defs><path class="cls-1" d="M467.56,388.36c-3,21.85-21,38.9-43,42.11-20,2.93-38-3.36-56.07-10.15-38.82-14.54-68.64-40.76-94.08-72.53-11.84-14.77-23.22-29.94-30-47.94-3.43-9.08-5.76-18.36-5.5-28.52-.19-18.24,7.14-33.61,20.25-46.48a20.53,20.53,0,0,1,15.77-6.34,57.75,57.75,0,0,0,8.52.08c6.83-.73,10.65,2.82,13.07,8.6q9.27,22.25,18.53,44.49a10.12,10.12,0,0,1-1,9.9,169.34,169.34,0,0,1-14.22,18.92c-3.28,3.86-3.34,7.34-.81,11.58,18.42,30.89,44.11,53.24,77.57,66.6,4.6,1.83,8.25,1,11.34-2.84,5.61-7,11.36-14,16.94-21,3.88-4.92,6-5.78,12.25-3.35,12.93,5.05,25.12,11.71,37.64,17.65,1.14.54,2.27,1.1,3.4,1.65C468.42,375.81,469.1,377.07,467.56,388.36Z" transform="translate(-125.89 -96.78)"/><path class="cls-1" d="M564.81,245.12c-31.13-84.05-93.84-133.11-183-146-51.86-7.52-100.71,3.45-145.35,30.76-104.16,63.73-139,195.55-80.42,302.31a8.7,8.7,0,0,1,.79,7.14c-10.32,37.38-20.5,74.79-30.95,113,2.19-.52,3.68-.84,5.16-1.23Q186,536.71,240.88,522.25a11.47,11.47,0,0,1,8.93,1c43.81,22.51,90.22,30.26,138.78,22.5C443.21,537,489.4,511.82,524.7,469.23,580.07,402.41,594.87,326.28,564.81,245.12ZM427.4,494.91C369,520,311.6,515.17,256.58,483.4a14.23,14.23,0,0,0-11.9-1.65c-21.26,5.82-42.6,11.33-64.64,17.15,6-21.95,11.62-43.11,17.6-64.18a10.59,10.59,0,0,0-1.39-9.6c-22.16-34.2-32.45-71.79-30.08-112.4,3-51.6,24-95,62.34-129.69,27.39-24.81,59.65-39.83,96.08-45.74,98.91-16,195.6,52.16,213.21,150.3C553.54,375.29,509.33,459.68,427.4,494.91Z" transform="translate(-125.89 -96.78)"/><path class="cls-1" d="M467.56,388.36c-3,21.85-21,38.9-43,42.11-20,2.93-38-3.36-56.07-10.15-38.82-14.54-68.64-40.76-94.08-72.53-11.84-14.77-23.22-29.94-30-47.94-3.43-9.08-5.76-18.36-5.5-28.52-.19-18.24,7.14-33.61,20.25-46.48a20.53,20.53,0,0,1,15.77-6.34,57.75,57.75,0,0,0,8.52.08c6.83-.73,10.65,2.82,13.07,8.6q9.27,22.25,18.53,44.49a10.12,10.12,0,0,1-1,9.9,169.34,169.34,0,0,1-14.22,18.92c-3.28,3.86-3.34,7.34-.81,11.58,18.42,30.89,44.11,53.24,77.57,66.6,4.6,1.83,8.25,1,11.34-2.84,5.61-7,11.36-14,16.94-21,3.88-4.92,6-5.78,12.25-3.35,12.93,5.05,25.12,11.71,37.64,17.65,1.14.54,2.27,1.1,3.4,1.65C468.42,375.81,469.1,377.07,467.56,388.36Z" transform="translate(-125.89 -96.78)"/><path class="cls-1" d="M467.56,388.36c-3,21.85-21,38.9-43,42.11-20,2.93-38-3.36-56.07-10.15-38.82-14.54-68.64-40.76-94.08-72.53-11.84-14.77-23.22-29.94-30-47.94-3.43-9.08-5.76-18.36-5.5-28.52-.19-18.24,7.14-33.61,20.25-46.48a20.53,20.53,0,0,1,15.77-6.34,57.75,57.75,0,0,0,8.52.08c6.83-.73,10.65,2.82,13.07,8.6q9.27,22.25,18.53,44.49a10.12,10.12,0,0,1-1,9.9,169.34,169.34,0,0,1-14.22,18.92c-3.28,3.86-3.34,7.34-.81,11.58,18.42,30.89,44.11,53.24,77.57,66.6,4.6,1.83,8.25,1,11.34-2.84,5.61-7,11.36-14,16.94-21,3.88-4.92,6-5.78,12.25-3.35,12.93,5.05,25.12,11.71,37.64,17.65,1.14.54,2.27,1.1,3.4,1.65C468.42,375.81,469.1,377.07,467.56,388.36Z" transform="translate(-125.89 -96.78)"/></svg>